<svg width="200" height="200" viewBox="0 0 200 200" fill="none" xmlns="http://www.w3.org/2000/svg">
<g clip-path="url(#clip0_4369_12844)">
<path d="M200 137.436C200 139.827 200 142.214 199.982 144.601C199.97 146.614 199.947 148.627 199.895 150.636C199.84 155.037 199.453 159.428 198.738 163.772C197.995 168.12 196.608 172.328 194.621 176.263C190.594 184.17 184.166 190.598 176.26 194.625C172.327 196.609 168.12 197.996 163.778 198.738C159.43 199.456 155.039 199.843 150.639 199.895C148.628 199.947 146.616 199.977 144.604 199.986C142.213 200 139.826 200 137.439 200H62.5611C60.1742 200 57.7872 200 55.3959 199.988C53.3841 199.98 51.3724 199.952 49.3612 199.901C44.9586 199.845 40.5664 199.457 36.2221 198.74C31.8787 198.001 27.67 196.61 23.7396 194.627C15.8345 190.6 9.40708 184.174 5.37887 176.27C3.39254 172.332 2.00481 168.12 1.26151 163.773C0.546996 159.432 0.160399 155.042 0.104999 150.642C0.0527997 148.629 0.0267998 146.616 0.0179999 144.603C0 142.212 0 139.829 0 137.437V62.5646C0 60.1732 0 57.7818 0.0179999 55.3904C0.0259999 53.3816 0.0527997 51.3685 0.104999 49.3597C0.160399 44.9599 0.547056 40.5704 1.26151 36.2286C2.00499 31.8806 3.39194 27.6718 5.37887 23.7325C9.4061 15.8261 15.8336 9.3982 23.7396 5.37078C27.6716 3.3875 31.8772 2.0012 36.2178 1.25756C40.5656 0.54448 44.9569 0.15752 49.3568 0.101C51.3699 0.0488 53.3829 0.0228 55.3916 0.014C57.7829 0 60.1742 0 62.5568 0H137.435C139.826 0 142.217 0 144.604 0.014C146.616 0.022 148.628 0.0504 150.639 0.101C155.039 0.1576 159.43 0.54448 163.773 1.25756C168.121 2.00108 172.326 3.3881 176.26 5.37078C184.168 9.39698 190.598 15.825 194.625 23.7325C196.61 27.6686 197.996 31.8789 198.738 36.2243C199.453 40.5675 199.84 44.9584 199.895 49.3597C199.947 51.3728 199.973 53.3859 199.982 55.3947C200 57.7861 200 60.1732 200 62.5602L200 137.436Z" fill="white"/>
<path d="M42.1854 83.8085C40.0858 83.8085 38.0068 84.222 36.067 85.0255C34.1272 85.8289 32.3647 87.0066 30.88 88.4913C29.3954 89.9759 28.2177 91.7384 27.4142 93.6782C26.6108 95.618 26.1972 97.697 26.1973 99.7966C26.1973 104.037 27.8818 108.103 30.88 111.102C33.8783 114.1 37.9448 115.784 42.185 115.784C46.4253 115.784 50.4919 114.1 53.4903 111.102C56.4887 108.103 58.1731 104.037 58.1732 99.7966C58.1732 95.5564 56.4888 91.4897 53.4906 88.4914C50.4923 85.493 46.4257 83.8085 42.1854 83.8085ZM42.185 86.8843C43.8807 86.8842 45.5598 87.2182 47.1264 87.8671C48.693 88.516 50.1165 89.4671 51.3155 90.6662C52.5145 91.8652 53.4656 93.2887 54.1145 94.8553C54.7635 96.4219 55.0974 98.101 55.0974 99.7966C55.0973 103.221 53.7369 106.505 51.3154 108.927C48.8938 111.348 45.6096 112.709 42.185 112.709C38.7606 112.709 35.4764 111.348 33.055 108.927C30.6335 106.505 29.2731 103.221 29.2731 99.7966C29.273 96.3721 30.6334 93.0878 33.0548 90.6663C35.4763 88.2448 38.7605 86.8843 42.185 86.8843ZM42.185 90.2523C39.6538 90.2523 37.2262 91.2579 35.4364 93.0479C33.6465 94.8378 32.641 97.2654 32.6411 99.7966C32.641 102.328 33.6465 104.756 35.4364 106.545C37.2262 108.335 39.6538 109.341 42.185 109.341C43.4384 109.341 44.6795 109.094 45.8375 108.615C46.9955 108.135 48.0477 107.432 48.934 106.546C49.8202 105.659 50.5233 104.607 51.0029 103.449C51.4826 102.291 51.7294 101.05 51.7294 99.7966C51.7294 98.5432 51.4826 97.3021 51.0029 96.1441C50.5233 94.9862 49.8202 93.934 48.934 93.0477C48.0477 92.1614 46.9955 91.4584 45.8375 90.9788C44.6795 90.4991 43.4384 90.2522 42.185 90.2523Z" fill="#FF3A2E"/>
<path d="M42.1854 130.688C40.0858 130.687 38.0068 131.101 36.067 131.904C34.1272 132.708 32.3647 133.886 30.88 135.37C29.3954 136.855 28.2177 138.617 27.4142 140.557C26.6108 142.497 26.1972 144.576 26.1973 146.676C26.1973 150.916 27.8818 154.982 30.88 157.981C33.8783 160.979 37.9448 162.663 42.185 162.663C46.4253 162.663 50.4919 160.979 53.4903 157.981C56.4887 154.983 58.1731 150.916 58.1732 146.676C58.1732 142.435 56.4888 138.369 53.4906 135.37C50.4923 132.372 46.4257 130.688 42.1854 130.688ZM42.185 133.763C43.8807 133.763 45.5598 134.097 47.1264 134.746C48.693 135.395 50.1165 136.346 51.3155 137.545C52.5145 138.744 53.4656 140.168 54.1145 141.734C54.7635 143.301 55.0974 144.98 55.0974 146.676C55.0973 150.1 53.7369 153.384 51.3154 155.806C48.8938 158.227 45.6096 159.588 42.185 159.588C38.7606 159.588 35.4764 158.227 33.055 155.806C30.6335 153.384 29.2731 150.1 29.2731 146.676C29.273 143.251 30.6334 139.967 33.0548 137.545C35.4763 135.124 38.7605 133.763 42.185 133.763ZM42.185 137.131C39.6538 137.131 37.2262 138.137 35.4364 139.927C33.6465 141.717 32.641 144.144 32.6411 146.676C32.641 149.207 33.6465 151.635 35.4364 153.424C37.2262 155.214 39.6538 156.22 42.185 156.22C43.4384 156.22 44.6795 155.973 45.8375 155.494C46.9955 155.014 48.0477 154.311 48.934 153.425C49.8202 152.538 50.5233 151.486 51.0029 150.328C51.4826 149.17 51.7294 147.929 51.7294 146.676C51.7294 145.422 51.4826 144.181 51.0029 143.023C50.5233 141.865 49.8202 140.813 48.934 139.927C48.0477 139.04 46.9955 138.337 45.8375 137.858C44.6795 137.378 43.4384 137.131 42.185 137.131Z" fill="#FF9503"/>
<path d="M42.1854 36.9392C40.0858 36.9392 38.0068 37.3527 36.067 38.1562C34.1272 38.9597 32.3647 40.1373 30.88 41.622C29.3954 43.1066 28.2177 44.8692 27.4142 46.8089C26.6108 48.7487 26.1972 50.8278 26.1973 52.9274C26.1973 57.1676 27.8818 61.2341 30.88 64.2324C33.8783 67.2307 37.9448 68.9151 42.185 68.9151C46.4253 68.9152 50.4919 67.2308 53.4903 64.2325C56.4887 61.2342 58.1731 57.1676 58.1732 52.9274C58.1732 48.6871 56.4888 44.6205 53.4906 41.6221C50.4923 38.6238 46.4257 36.9393 42.1854 36.9392ZM42.185 40.015C43.8807 40.015 45.5598 40.349 47.1264 40.9979C48.693 41.6468 50.1165 42.5979 51.3155 43.7969C52.5145 44.9959 53.4656 46.4194 54.1145 47.986C54.7635 49.5526 55.0974 51.2317 55.0974 52.9274C55.0973 56.3519 53.7369 59.6361 51.3154 62.0576C48.8938 64.479 45.6096 65.8394 42.185 65.8394C38.7606 65.8393 35.4764 64.4789 33.055 62.0574C30.6335 59.636 29.2731 56.3518 29.2731 52.9274C29.273 49.5029 30.6334 46.2186 33.0548 43.797C35.4763 41.3755 38.7605 40.0151 42.185 40.015ZM42.185 43.383C39.6538 43.3831 37.2262 44.3887 35.4364 46.1786C33.6465 47.9685 32.641 50.3961 32.6411 52.9274C32.641 55.4586 33.6465 57.8862 35.4364 59.6761C37.2262 61.4661 39.6538 62.4717 42.185 62.4717C43.4384 62.4718 44.6795 62.2249 45.8375 61.7452C46.9955 61.2656 48.0477 60.5626 48.934 59.6763C49.8202 58.79 50.5233 57.7378 51.0029 56.5799C51.4826 55.4219 51.7294 54.1808 51.7294 52.9274C51.7294 51.674 51.4826 50.4329 51.0029 49.2749C50.5233 48.1169 49.8202 47.0647 48.934 46.1785C48.0477 45.2922 46.9955 44.5891 45.8375 44.1095C44.6795 43.6299 43.4384 43.383 42.185 43.383Z" fill="#017AFF"/>
<path d="M78.9861 97.0718C77.4815 97.0719 76.2032 98.2916 76.2031 99.7962C76.203 101.301 77.4423 102.521 78.947 102.521H171.038C172.543 102.521 173.802 101.301 173.802 99.7962C173.802 98.2914 172.524 97.0717 171.019 97.0718H78.9861Z" fill="#C7C7CB"/>
<path d="M78.9861 50.2026C77.4815 50.2027 76.2032 51.4225 76.2031 52.9271C76.203 54.4319 77.4423 55.6518 78.947 55.6519H171.038C172.543 55.6521 173.802 54.432 173.802 52.9271C173.802 51.4223 172.524 50.2025 171.019 50.2026H78.9861Z" fill="#C7C7CB"/>
<path d="M78.9861 143.951C77.4815 143.951 76.2032 145.171 76.2031 146.675C76.203 148.18 77.4423 149.4 78.947 149.4H171.038C172.543 149.4 173.802 148.18 173.802 146.675C173.802 145.17 172.524 143.951 171.019 143.951H78.9861Z" fill="#C7C7CB"/>
</g>
<defs>
<clipPath id="clip0_4369_12844">
<rect width="200" height="200" fill="white"/>
</clipPath>
</defs>
</svg>
