<svg width="200" height="200" viewBox="0 0 200 200" fill="none" xmlns="http://www.w3.org/2000/svg">
<g clip-path="url(#clip0_4370_13063)">
<path d="M200 0H0V200H200V0Z" fill="#1B1F23"/>
<path d="M100 166.84C137.005 166.84 167.004 136.841 167.004 99.836C167.004 62.8307 137.005 32.832 100 32.832C62.9948 32.832 32.9961 62.8307 32.9961 99.836C32.9961 136.841 62.9948 166.84 100 166.84Z" fill="#1B1F23"/>
<path d="M99.9999 31.56C62.2479 31.56 31.6719 62.136 31.6719 99.888C31.6719 130.124 51.2319 155.66 78.3919 164.716C81.8079 165.312 83.0879 163.264 83.0879 161.472C83.0879 159.848 83.0039 154.468 83.0039 148.744C65.8359 151.904 61.3959 144.56 60.0279 140.716C59.2599 138.752 55.9279 132.688 53.0239 131.064C50.6319 129.784 47.2159 126.624 52.9399 126.536C58.3199 126.452 62.1639 131.488 63.4439 133.54C69.5919 143.876 79.4159 140.972 83.3439 139.176C83.9399 134.736 85.7359 131.744 87.6999 130.036C72.4959 128.328 56.6119 122.436 56.6119 96.3C56.6119 88.868 59.2599 82.72 63.6159 77.936C62.9319 76.228 60.5399 69.224 64.2999 59.828C64.2999 59.828 70.0239 58.036 83.0919 66.832C88.5599 65.296 94.3679 64.524 100.176 64.524C105.984 64.524 111.792 65.292 117.26 66.832C130.328 57.948 136.052 59.828 136.052 59.828C139.812 69.224 137.42 76.228 136.736 77.936C141.092 82.72 143.74 88.784 143.74 96.3C143.74 122.52 127.768 128.328 112.564 130.036C115.04 132.172 117.176 136.272 117.176 142.676C117.176 151.816 117.092 159.16 117.092 161.468C117.092 163.26 118.372 165.396 121.788 164.712C148.776 155.66 168.336 130.036 168.336 99.884C168.328 62.136 137.752 31.56 99.9999 31.56Z" fill="white"/>
</g>
<defs>
<clipPath id="clip0_4370_13063">
<rect width="200" height="200" rx="44" fill="white"/>
</clipPath>
</defs>
</svg>
