<svg width="200" height="200" viewBox="0 0 200 200" fill="none" xmlns="http://www.w3.org/2000/svg">
<rect width="200" height="200" rx="44" fill="white"/>
<g clip-path="url(#clip0_3468_233)">
<path d="M35.7488 156.023H59.4098V98.3367L25.5762 72.8544V145.816C25.5732 147.157 25.8343 148.486 26.3445 149.726C26.8547 150.965 27.6038 152.092 28.5491 153.04C29.4943 153.988 30.6169 154.74 31.8524 155.252C33.0879 155.764 34.4121 156.026 35.7488 156.023Z" fill="#557EBF"/>
<path d="M140.611 156.023H164.295C166.987 156.023 169.568 154.95 171.472 153.04C173.375 151.13 174.445 148.54 174.445 145.839V72.8544L140.611 98.3141V156.023Z" fill="#36A852"/>
<path d="M140.611 54.2065V98.314L174.445 72.8543V59.2758C174.445 56.4389 173.658 53.6581 172.171 51.2449C170.685 48.8316 168.558 46.8814 166.029 45.6127C163.5 44.344 160.669 43.807 157.852 44.0617C155.036 44.3165 152.347 45.3531 150.085 47.0552L140.611 54.2065Z" fill="#F9BC15"/>
<path d="M59.4102 98.3367V54.2065L100.01 84.7356L140.611 54.2065V98.3141L100.01 128.843L59.4102 98.3367Z" fill="#EA4535"/>
<path d="M25.5781 59.2757V72.8542L59.4117 98.3139V54.2063L49.9383 47.0777C47.6778 45.3767 44.9902 44.3403 42.1761 44.0847C39.3621 43.8291 36.5326 44.3642 34.0044 45.6301C31.4762 46.8961 29.349 48.843 27.8609 51.2529C26.3727 53.6628 25.5823 56.4407 25.5781 59.2757Z" fill="#C52627"/>
</g>
<defs>
<clipPath id="clip0_3468_233">
<rect width="148.8" height="112" fill="white" transform="translate(25.5996 44)"/>
</clipPath>
</defs>
</svg>
