<svg width="200" height="200" viewBox="0 0 200 200" fill="none" xmlns="http://www.w3.org/2000/svg">
<rect width="200" height="200" rx="44" fill="white"/>
<g clip-path="url(#clip0_4369_12890)">
<path d="M37.4914 145.702L44.1947 157.212C45.5876 159.635 47.5899 161.539 49.9404 162.923L73.8809 121.731H26C26 124.414 26.6964 127.096 28.0893 129.519L37.4914 145.702Z" fill="#0066DA"/>
<path d="M102 73.2691L78.0596 32.0768C75.709 33.4614 73.7068 35.3652 72.3139 37.7883L28.0893 113.942C26.7221 116.313 26.0018 118.998 26 121.731H73.8809L102 73.2691Z" fill="#00AC47"/>
<path d="M154.061 162.923C156.412 161.539 158.414 159.635 159.807 157.212L162.593 152.452L175.912 129.519C177.305 127.096 178.002 124.414 178.002 121.731H130.117L140.306 141.635L154.061 162.923Z" fill="#EA4335"/>
<path d="M102.001 73.2692L125.941 32.0769C123.591 30.6923 120.892 30 118.106 30H85.8956C83.1098 30 80.4111 30.7788 78.0605 32.0769L102.001 73.2692Z" fill="#00832D"/>
<path d="M130.12 121.731H73.8818L49.9414 162.923C52.2919 164.308 54.9907 165 57.7765 165H146.226C149.011 165 151.71 164.221 154.061 162.923L130.12 121.731Z" fill="#2684FC"/>
<path d="M153.798 75.8652L131.686 37.7883C130.293 35.3652 128.291 33.4614 125.94 32.0768L102 73.2691L130.119 121.731H177.913C177.913 119.048 177.216 116.365 175.824 113.942L153.798 75.8652Z" fill="#FFBA00"/>
</g>
<defs>
<clipPath id="clip0_4369_12890">
<rect width="152" height="135" fill="white" transform="translate(26 30)"/>
</clipPath>
</defs>
</svg>
