<svg width="200" height="200" viewBox="0 0 200 200" fill="none" xmlns="http://www.w3.org/2000/svg">
<rect width="200" height="200" rx="44" fill="white"/>
<g clip-path="url(#clip0_3524_16)">
<path d="M78.0844 54.0578C80.1727 55.9351 80.3414 59.1203 78.4641 61.2085L63.2766 78.0835C62.3484 79.1171 61.0406 79.7289 59.6484 79.75C58.2563 79.771 56.9273 79.2437 55.9359 78.2734L47.4773 69.8359C45.5156 67.8531 45.5156 64.6468 47.4773 62.664C49.4391 60.6812 52.6664 60.6812 54.6281 62.664L59.2898 67.3257L70.9125 54.4164C72.7898 52.3281 75.975 52.1593 78.0633 54.0367L78.0844 54.0578ZM78.0844 87.8078C80.1727 89.6851 80.3414 92.8703 78.4641 94.9585L63.2766 111.834C62.3484 112.867 61.0406 113.479 59.6484 113.5C58.2563 113.521 56.9273 112.994 55.9359 112.023L47.4773 103.586C45.4945 101.603 45.4945 98.3968 47.4773 96.4351C49.4602 94.4734 52.6664 94.4523 54.6281 96.4351L59.2898 101.097L70.9125 88.1875C72.7898 86.0992 75.975 85.9304 78.0633 87.8078H78.0844ZM93.2508 66.25C93.2508 62.5164 96.2672 59.5 100.001 59.5H147.251C150.984 59.5 154.001 62.5164 154.001 66.25C154.001 69.9835 150.984 73 147.251 73H100.001C96.2672 73 93.2508 69.9835 93.2508 66.25ZM93.2508 100C93.2508 96.2664 96.2672 93.25 100.001 93.25H147.251C150.984 93.25 154.001 96.2664 154.001 100C154.001 103.734 150.984 106.75 147.251 106.75H100.001C96.2672 106.75 93.2508 103.734 93.2508 100ZM79.7508 133.75C79.7508 130.016 82.7672 127 86.5008 127H147.251C150.984 127 154.001 130.016 154.001 133.75C154.001 137.484 150.984 140.5 147.251 140.5H86.5008C82.7672 140.5 79.7508 137.484 79.7508 133.75ZM56.1258 123.625C58.8111 123.625 61.3864 124.692 63.2852 126.59C65.184 128.489 66.2508 131.065 66.2508 133.75C66.2508 136.435 65.184 139.011 63.2852 140.909C61.3864 142.808 58.8111 143.875 56.1258 143.875C53.4405 143.875 50.8651 142.808 48.9663 140.909C47.0675 139.011 46.0008 136.435 46.0008 133.75C46.0008 131.065 47.0675 128.489 48.9663 126.59C50.8651 124.692 53.4405 123.625 56.1258 123.625Z" fill="#333333"/>
</g>
<defs>
<clipPath id="clip0_3524_16">
<rect width="108" height="108" fill="white" transform="translate(46 46)"/>
</clipPath>
</defs>
</svg>
