<svg width="78" height="25" viewBox="0 0 78 25" fill="none" xmlns="http://www.w3.org/2000/svg">
<path d="M7.90021 0.304928C5.34846 0.304928 3.98744 0.475246 3.39181 0.475246C2.39939 0.475246 1.52044 0.446743 0.641127 0.446743C0.159282 0.446743 0.0742188 0.475292 0.0742188 0.673708C0.0742188 1.01371 0.187497 1.0425 1.46384 1.0425C2.25741 1.0425 2.71162 1.29772 2.71162 3.53774V16.5815C2.71162 17.0068 2.65454 17.0636 1.37869 17.0636C0.754775 17.0636 0.584479 17.12 0.584479 17.4039C0.584479 17.6873 0.783014 17.7156 1.06692 17.7156C1.97405 17.7156 2.59796 17.6023 3.78877 17.6023C5.03637 17.6023 6.22747 17.8856 7.41851 17.8856C11.3601 17.8856 13.9974 16.3831 13.9974 13.2072C13.9974 10.7402 12.3239 9.77592 10.9912 9.095C10.4241 8.81155 9.88524 8.66982 9.88524 8.61329C9.88524 8.52846 10.5091 8.21631 11.0482 7.84758C11.9558 7.2239 13.175 6.23098 13.175 4.21786C13.175 2.20451 11.5871 0.304928 7.90021 0.304928ZM56.486 0.337358C56.338 0.337358 55.4007 0.75666 53.477 0.880007C53.0579 0.904634 52.8602 0.879736 52.8602 1.17573C52.8602 1.44732 53.1071 1.49677 53.5511 1.49677C54.6607 1.49677 54.8088 1.49665 54.8088 3.05025V16.64C54.8088 17.084 54.3894 17.0593 53.3783 17.0593C52.786 17.0593 52.7615 17.2077 52.7615 17.3804C52.7615 17.5776 52.8107 17.6269 53.3783 17.6269C53.7235 17.6269 55.0309 17.5778 55.8692 17.5778C56.3137 17.5778 56.8562 17.6269 57.226 17.6269C58.1138 17.6269 58.2864 17.6269 58.2864 17.3804C58.2864 17.1827 58.3356 17.0348 57.1024 17.0348C56.6586 17.0348 56.486 16.7635 56.486 14.7166C56.486 14.001 56.6092 12.0529 56.6092 2.65568C56.6092 1.91592 56.7325 1.02757 56.7325 0.731581C56.7325 0.460217 56.6091 0.337358 56.486 0.337358ZM36.0096 0.361938C35.7874 0.361938 34.3321 0.904266 32.5566 0.904266C32.2852 0.904266 32.2359 1.00302 32.2359 1.24952C32.2359 1.42261 32.3345 1.49681 33.3454 1.49681C34.0113 1.49681 34.2088 1.71882 34.2088 3.46971C34.2088 8.67399 34.1347 15.9744 34.1347 16.6895C34.1347 17.0594 33.9128 17.0594 33.0743 17.0594C32.4823 17.0594 32.3592 17.1827 32.3592 17.3804C32.3592 17.6023 32.5071 17.627 33.0743 17.627C33.4195 17.627 34.3322 17.5778 35.1712 17.5778C35.9604 17.5778 37.0945 17.627 37.4644 17.627C38.0069 17.627 38.1303 17.6269 38.1303 17.3804C38.1303 17.1827 38.0317 17.0594 37.4644 17.0594C35.9354 17.0594 35.985 17.0595 35.985 15.9007V14.3468C35.985 14.1247 36.3302 13.9518 36.7247 13.7051C37.1438 13.4337 37.4889 13.1874 37.5876 13.1874C37.7356 13.1874 38.7721 14.7415 39.8078 15.9253C40.8436 17.109 41.0657 17.7256 41.5099 17.7256C41.8552 17.7256 42.595 17.7011 42.891 17.7011C43.1128 17.7011 43.4334 17.7256 43.7294 17.7256C44.2719 17.7256 44.4445 17.6763 44.4445 17.5037C44.4445 17.3064 44.2474 17.1826 43.6556 17.1826C42.8171 17.1826 42.0278 15.9743 41.1889 14.9632C39.4626 12.8912 39.019 12.4228 39.019 12.2007C39.019 12.0281 40.548 10.9432 41.7814 9.73437C42.5458 8.99461 43.3841 7.93428 43.3841 7.71195C43.3841 7.63783 43.2856 7.61325 43.0884 7.61325C42.7926 7.61325 41.3616 7.68701 41.041 7.68701C40.745 7.68701 40.2767 7.61325 40.0302 7.61325C39.7095 7.61325 39.5862 7.66247 39.5862 7.86018C39.5862 8.08229 39.7094 8.13132 40.0793 8.13132C41.1643 8.13132 41.2384 8.18078 41.2384 8.57529C41.2384 9.09316 41.0163 9.51253 40.0547 10.4249C39.2655 11.1651 36.6999 13.434 36.0833 13.434C36.0094 13.434 35.985 13.3599 35.985 13.2611C35.985 9.24107 36.1325 6.47884 36.1325 2.72989C36.1325 1.94065 36.182 0.904217 36.182 0.583824C36.182 0.435827 36.1327 0.361938 36.0096 0.361938ZM7.04917 0.985493C9.62965 0.985493 10.8207 3.70786 10.8207 5.1258C10.8207 7.36581 9.88496 7.90462 9.06265 8.52854C9.06265 8.52854 7.87143 8.35822 6.14199 8.35822C5.46107 8.35822 5.09266 8.41473 5.09266 7.96093V1.80801C5.09266 1.24088 5.17791 0.985493 7.04917 0.985493ZM19.4846 7.36645C17.2402 7.36645 14.8969 9.43841 14.8969 12.916C14.8969 17.0348 17.9061 18.0218 19.9283 18.0218C21.9262 18.0218 24.0226 16.4674 24.0226 16.3443C24.0226 16.2948 23.9486 16.1469 23.8253 16.1469C23.6775 16.1469 22.7896 16.739 21.1619 16.739C19.2872 16.739 16.6478 15.8264 16.6478 12.4227C16.6478 11.8555 16.7221 11.7322 17.1171 11.7076C19.9283 11.5349 22.3948 10.9927 23.036 10.8442C23.7023 10.6962 24.0476 10.5977 24.0476 10.4989C24.0476 10.3017 23.6527 9.70961 23.2331 9.21659C22.3453 8.18061 20.7673 7.36645 19.4846 7.36645ZM48.2433 7.36645C45.9992 7.36645 43.6557 9.43841 43.6557 12.916C43.6557 17.0348 46.6646 18.0218 48.6871 18.0218C50.6847 18.0218 52.7814 16.4674 52.7814 16.3443C52.7814 16.2948 52.7072 16.1469 52.584 16.1469C52.436 16.1469 51.548 16.739 49.9203 16.739C48.0458 16.739 45.4069 15.8264 45.4069 12.4227C45.4069 11.8555 45.4809 11.7322 45.8754 11.7076C48.6871 11.5349 51.1531 10.9927 51.7948 10.8442C52.4607 10.6962 52.8061 10.5977 52.8061 10.4989C52.8061 10.3017 52.4116 9.70961 51.9922 9.21659C51.104 8.18061 49.526 7.36645 48.2433 7.36645ZM62.4693 7.36645C60.2247 7.36645 57.8816 9.43841 57.8816 12.916C57.8816 17.0348 60.8906 18.0218 62.913 18.0218C64.9109 18.0218 67.0074 16.4674 67.0074 16.3443C67.0074 16.2948 66.9332 16.1469 66.81 16.1469C66.662 16.1469 65.7744 16.739 64.1462 16.739C62.272 16.739 59.6329 15.8264 59.6329 12.4227C59.6329 11.8555 59.7069 11.7322 60.1015 11.7076C62.9132 11.5349 65.3796 10.9927 66.0209 10.8442C66.6867 10.6962 67.0321 10.5977 67.0321 10.4989C67.0321 10.3017 66.6376 9.70961 66.2182 9.21659C65.3305 8.18061 63.7515 7.36645 62.4693 7.36645ZM28.0674 7.53892C27.6725 7.53892 27.2038 7.66219 26.8093 7.66219C26.3161 7.66219 25.8474 7.61267 25.0089 7.61267C24.5893 7.61267 24.6141 7.68701 24.6141 7.98323C24.6141 8.2546 24.6139 8.22979 25.0584 8.22979C26.4394 8.22979 26.3899 8.27912 26.3899 9.95613V16.7143C26.3899 17.0595 26.3161 17.0841 25.3049 17.0841C24.7127 17.0841 24.6881 17.1332 24.6881 17.3802C24.6881 17.6269 24.7373 17.6268 25.3049 17.6268C25.6502 17.6268 26.4889 17.5035 27.3274 17.5035C28.1168 17.5035 29.7692 17.6268 30.1144 17.6268C30.7556 17.6268 30.7804 17.6516 30.7804 17.3802C30.7804 17.1579 30.7556 17.0841 30.1144 17.0841C28.2894 17.0841 28.2156 17.0839 28.2156 15.8755V10.7944C28.2156 9.75862 28.7579 9.16672 30.1881 9.16672C31.4216 9.16672 31.7178 10.1779 32.063 10.1779C32.211 10.1779 32.6054 9.09279 32.6054 8.84606C32.6054 8.20504 31.471 7.66204 31.0266 7.66204C29.8674 7.66204 28.7088 8.94475 28.3389 8.94475C28.2402 8.94475 28.2156 8.7722 28.2156 8.55032C28.2156 8.47621 28.2648 7.93361 28.2648 7.81024C28.2648 7.61253 28.1662 7.53892 28.0674 7.53892ZM77.3145 7.5635C76.9693 7.5635 76.3034 7.66219 75.9335 7.66219C75.2672 7.66219 74.8233 7.61302 74.1576 7.61302C73.7136 7.61302 73.6396 7.61284 73.6396 7.93369C73.6396 8.18043 73.7383 8.18062 74.5029 8.18062C75.3412 8.18062 75.341 8.32843 75.341 9.06819C75.341 9.41344 74.4533 11.9789 73.8615 13.7544C73.467 14.9139 73.319 15.2591 73.1464 15.2591C73.0477 15.2591 72.7516 14.8398 72.5539 14.322C71.0744 10.5233 70.4331 9.65995 70.4331 8.94482C70.4331 8.37769 70.5811 8.2297 71.1728 8.2297C71.6907 8.2297 71.7896 8.20502 71.7896 7.98313C71.7896 7.71131 71.6907 7.61292 71.1728 7.61292C70.3838 7.61292 69.5203 7.68669 68.8298 7.68669C68.238 7.68669 68.0655 7.63751 67.375 7.63751C66.931 7.63751 66.8572 7.76102 66.8572 7.98313C66.8572 8.20501 66.8817 8.2297 67.375 8.2297C67.8187 8.2297 67.9915 8.35322 68.6081 9.83271C69.9647 13.0392 71.9375 17.602 71.9375 17.8733C71.9375 18.6131 69.817 21.5233 68.9288 22.6329C68.0903 23.6938 66.931 23.8418 66.931 23.9898C66.931 24.1131 67.1775 24.2363 67.5969 24.2363C68.1394 24.2363 68.312 24.0391 69.0517 23.9406C69.5947 23.8665 69.8906 23.8417 70.162 23.2993C70.951 21.6713 72.0611 19.6734 73.615 15.8999C75.5633 11.1649 76.6488 8.20498 77.1913 8.20498C77.4873 8.20498 77.8323 8.08159 77.8323 7.8597C77.8323 7.58811 77.7091 7.5635 77.3145 7.5635ZM19.2378 7.88452C20.3725 7.88452 21.8275 9.70934 21.8275 10.326C21.8275 10.4739 21.8031 10.5233 21.5317 10.5725C19.6819 10.8685 18.35 11.1896 17.0675 11.1896C16.7713 11.1896 16.7714 11.1648 16.7714 11.0414C16.7714 10.6957 17.3636 7.88452 19.2378 7.88452ZM47.9961 7.88452C49.1311 7.88452 50.5862 9.70934 50.5862 10.326C50.5862 10.4739 50.5614 10.5233 50.2901 10.5725C48.4402 10.8685 47.1085 11.1896 45.8262 11.1896C45.5302 11.1896 45.5301 11.1648 45.5301 11.0414C45.5301 10.6957 46.1219 7.88452 47.9961 7.88452ZM62.2221 7.88452C63.3566 7.88452 64.8121 9.70934 64.8121 10.326C64.8121 10.4739 64.7874 10.5233 64.516 10.5725C62.6661 10.8685 61.3345 11.1896 60.0518 11.1896C59.7558 11.1896 59.7557 11.1648 59.7557 11.0414C59.7557 10.6957 60.3474 7.88452 62.2221 7.88452ZM6.11558 8.89647C9.20618 8.89647 11.3044 10.8815 11.3044 13.4337C11.3044 15.9006 9.71667 17.3756 7.56171 17.3756C6.65412 17.3756 5.74708 17.1769 5.43489 16.8365C5.17995 16.5528 5.09462 14.9651 5.09462 14.7097V9.63353C5.09462 9.00984 5.32154 8.89647 6.11558 8.89647ZM20.1769 20.4721C19.5942 20.4721 19.1083 20.8236 19.1083 21.406C19.1083 22.5129 20.5667 22.3156 20.5667 22.9318C20.5667 23.1771 20.3789 23.3889 19.9987 23.3889C19.7435 23.3889 19.4212 23.2689 19.1514 23.086L18.9109 23.5097C19.1805 23.6971 19.5461 23.8756 19.9988 23.8756C20.6293 23.8756 21.1539 23.4707 21.1539 22.9125C21.1539 21.7908 19.6955 22.1281 19.6955 21.3818C19.6955 21.1364 19.8592 20.9585 20.1769 20.9585C20.4608 20.9585 20.6821 21.0548 20.9276 21.1798L21.1347 20.7658C20.8558 20.5927 20.5233 20.4721 20.1769 20.4721ZM31.8036 20.4721C30.8121 20.4721 30.3695 21.1799 30.3695 22.1714C30.3695 23.1148 30.8073 23.8756 31.8036 23.8756C32.7999 23.8756 33.2381 23.1148 33.2381 22.1714C33.2381 21.1799 32.7951 20.4721 31.8036 20.4721ZM39.5327 20.4721C38.5412 20.4721 38.0548 21.1846 38.0548 22.1764C38.0548 23.187 38.4981 23.8756 39.5135 23.8756C39.9563 23.8756 40.3703 23.6923 40.7071 23.3843L40.4135 23.0091C40.144 23.2547 39.8361 23.3889 39.5423 23.3889C38.931 23.3889 38.6419 22.9513 38.6419 22.1714C38.6419 21.3965 38.9503 20.9585 39.5327 20.9585C39.8456 20.9585 40.0766 21.0694 40.3316 21.281L40.6302 20.8958C40.2836 20.6117 39.9418 20.4721 39.5327 20.4721ZM52.0644 20.4721C51.0726 20.4721 50.6302 21.1799 50.6302 22.1714C50.6302 23.1148 51.0681 23.8756 52.0644 23.8756C53.0606 23.8756 53.4988 23.1148 53.4988 22.1714C53.4988 21.1799 53.0559 20.4721 52.0644 20.4721ZM6.00521 20.5202L5.4515 20.5783V23.8225H6.02442V21.6084H6.03404L7.42508 23.8225H7.93532V20.5252H7.3624V22.6916H7.34818L6.00521 20.5202ZM13.3535 20.5202V23.8225H15.356L15.3994 23.3361H13.9264V22.4026H15.1635V21.9162H13.9264V21.0066H15.3175V20.5202H13.3535ZM33.975 20.5202V23.8225H34.5476V22.4026H35.7609V21.9162H34.5476V21.0066H35.9001V20.5202H33.975ZM42.8302 20.5202L42.1614 20.5733L41.0012 23.8225H41.5357L41.8097 23.0279H43.1384L43.4127 23.8225H44.0003L42.8302 20.5202ZM48.3355 20.5202V23.8225H48.9081V22.4026H50.1213V21.9162H48.9081V21.0066H50.261V20.5202H48.3355ZM57.3544 20.5202L56.8006 20.5783V23.8225H57.3732V21.6084H57.3832L58.7739 23.8225H59.2842V20.5252H58.7116V22.6916H58.697L57.3544 20.5202ZM62.8738 20.5202L62.2047 20.5733L61.0445 23.8225H61.579L61.8533 23.0279H63.1816L63.456 23.8225H64.0436L62.8738 20.5202ZM2.21568 20.5252V22.6766C2.21568 23.418 2.62469 23.8756 3.43354 23.8756C4.23714 23.8756 4.64643 23.4181 4.64643 22.672V20.5252H4.0735V22.7105C4.0735 23.1198 3.9006 23.3889 3.43359 23.3889C2.96178 23.3889 2.78834 23.1196 2.78834 22.7055V20.5252H2.21568ZM8.75124 20.5252V23.8225H9.32386V20.5252H8.75124ZM9.88679 20.5252L11.0227 23.8225H11.653L12.7939 20.5252H12.2306L11.6003 22.3688C11.6003 22.3688 11.5377 22.5563 11.374 23.1195H11.3451C11.1862 22.5563 11.1239 22.3638 11.1239 22.3638L10.4932 20.5252H9.88679ZM16.1574 20.5252V23.8225H16.73V22.5034H17.0043C17.2114 22.5034 17.3318 22.6963 17.428 22.8936L17.8851 23.8225H18.5158L17.8851 22.6335C17.8468 22.5564 17.7889 22.4696 17.6831 22.4069V22.3976C18.1161 22.2339 18.3041 21.8971 18.3041 21.5026C18.3041 20.9298 17.943 20.5252 17.216 20.5252H16.1574ZM21.836 20.5252V23.8225H22.4086V20.5252H21.836ZM23.0678 20.5252V21.0162H23.9393V23.8225H24.5119V21.0112H25.3446L25.388 20.5252H23.0678ZM25.7629 20.5252L26.8026 22.4119V23.8225H27.3752V22.4119L28.4153 20.5252H27.7843L27.3175 21.4641C27.3175 21.4641 27.2598 21.5841 27.0963 21.9501H27.082C26.9085 21.5841 26.8458 21.4641 26.8458 21.4641L26.4079 20.5252H25.7629ZM44.4643 20.5252V23.8225H46.4137L46.4571 23.3361H45.0372V20.5252H44.4643ZM47.0148 20.5252V23.8225H47.5874V20.5252H47.0148ZM53.9927 20.5252V23.8225H54.5656V22.5034H54.84C55.0468 22.5034 55.1674 22.6963 55.2637 22.8936L55.7208 23.8225H56.3515L55.7208 22.6335C55.6825 22.5564 55.6246 22.4696 55.5188 22.4069V22.3976C55.9518 22.2339 56.1398 21.8971 56.1398 21.5026C56.1398 20.9298 55.7787 20.5252 55.0517 20.5252H53.9927ZM60.0038 20.5252V23.8225H60.5764V20.5252H60.0038ZM31.8028 20.9585C32.3708 20.9585 32.6451 21.4542 32.6451 22.1714C32.6451 22.8886 32.3663 23.3889 31.8028 23.3889C31.235 23.3889 30.9559 22.8883 30.9559 22.1664C30.9559 21.4492 31.235 20.9585 31.8028 20.9585ZM52.0631 20.9585C52.6311 20.9585 52.9054 21.4542 52.9054 22.1714C52.9054 22.8886 52.6263 23.3889 52.0631 23.3889C51.495 23.3889 51.2161 22.8883 51.2161 22.1664C51.2161 21.4492 51.495 20.9585 52.0631 20.9585ZM16.7299 21.0162H17.2017C17.5917 21.0162 17.7169 21.1991 17.7169 21.5072C17.7169 21.8201 17.5579 22.0221 17.2113 22.0221H16.7299V21.0162ZM54.5656 21.0162H55.0373C55.4273 21.0162 55.5525 21.1991 55.5525 21.5072C55.5525 21.8201 55.3936 22.0221 55.047 22.0221H54.5656V21.0162ZM42.4622 21.1028H42.4718C42.698 21.7862 42.7366 21.892 42.7366 21.892L42.9917 22.6189H41.947L42.2021 21.892C42.2021 21.892 42.2408 21.7862 42.4622 21.1028ZM62.5058 21.1028H62.5155C62.7417 21.7862 62.7806 21.892 62.7806 21.892L63.0353 22.6189H61.9906L62.2461 21.892C62.2461 21.892 62.2844 21.7862 62.5058 21.1028Z" fill="#000000"/>
</svg>

