<svg width="96" height="24" viewBox="0 0 96 24" fill="none" xmlns="http://www.w3.org/2000/svg">
<path d="M0.603516 0.148438V7.69593C0.966625 14.0244 3.66401 18.0705 5.86861 20.3529C8.25476 22.8169 10.589 23.8284 10.615 23.8284L10.6409 23.8543L10.6668 23.8284C19.5371 18.2002 20.4967 10.6786 20.4967 7.69593V0.148438H0.603516ZM90.2138 2.94957C89.2801 2.94957 88.087 3.05331 87.6461 3.05331C87.3868 3.05331 86.4271 3.02738 86.1159 3.02738V3.26081C86.6346 3.36455 86.9199 3.54611 86.9199 4.01296V10.8602C86.9199 11.353 86.6346 11.5605 86.0899 11.6383V11.8717C86.3752 11.8717 87.283 11.8458 87.5424 11.8458C87.9833 11.8458 89.0986 11.9236 90.0323 11.9236C93.2743 11.9236 95.2714 10.0043 95.2714 7.41063C95.2714 4.68731 93.3521 2.94957 90.2138 2.94957ZM41.7905 2.94957C41.7905 2.94957 41.6609 3.52017 41.5312 3.80547L38.7041 10.6267C38.4966 11.1195 38.1854 11.4826 37.6407 11.6123V11.8458L38.9116 11.8198C39.0932 11.8198 39.8712 11.8458 40.1565 11.8458V11.6123C39.6638 11.4826 39.5341 11.2752 39.5341 11.0417C39.5341 10.8861 39.6119 10.6527 39.6897 10.4711L40.2862 8.99275H43.5802L44.2286 10.4711C44.3323 10.6786 44.3842 10.8861 44.3842 11.0677C44.3842 11.2752 44.2545 11.5086 43.8136 11.6123V11.8458C44.1508 11.8458 45.1104 11.8198 45.3179 11.8198C45.5513 11.8198 46.5628 11.8458 46.8741 11.8458V11.6123C46.2775 11.4567 46.0441 11.1195 45.8366 10.6527L42.828 3.80547C42.6983 3.52017 42.5686 2.94957 42.5686 2.94957H41.7905ZM69.8797 2.94957C69.8797 2.94957 69.75 3.52017 69.6203 3.80547L66.7932 10.6267C66.5858 11.1195 66.2745 11.4826 65.7299 11.6123V11.8458L67.0007 11.8198C67.1823 11.8198 67.9604 11.8458 68.2457 11.8458V11.6123C67.7529 11.4826 67.6232 11.2752 67.6232 11.0417C67.6232 10.8861 67.701 10.6527 67.7788 10.4711L68.3754 8.99275H71.6693L72.3177 10.4711C72.3955 10.6786 72.4733 10.8861 72.4733 11.0677C72.4733 11.2752 72.3436 11.5086 71.9027 11.6123V11.8458C72.2399 11.8458 73.1995 11.8198 73.407 11.8198C73.6405 11.8198 74.652 11.8458 74.9632 11.8458V11.6123C74.3667 11.4567 74.1332 11.1195 73.9258 10.6527L70.9171 3.80547C70.8134 3.52017 70.6578 2.94957 70.6578 2.94957H69.8797ZM51.9057 2.94957C51.4129 2.94957 50.1939 3.02738 49.753 3.02738C49.4937 3.02738 48.5599 3.00144 48.2487 3.00144V3.23487C48.7934 3.33861 49.0268 3.59798 49.0268 4.01296V10.8083C49.0268 11.2752 48.7415 11.5345 48.2487 11.6123V11.8458C48.534 11.8458 49.4937 11.8198 49.7271 11.8198C50.0124 11.8198 50.972 11.8458 51.2573 11.8458V11.6123C50.7386 11.5086 50.4274 11.2492 50.4274 10.8083V7.77374C50.583 7.79968 50.7127 7.79968 50.8424 7.82561C51.5167 7.92936 51.9057 8.2406 52.191 8.62964C52.6838 9.25212 53.5138 10.4971 54.0066 11.0677C54.5772 11.742 55.1478 12.0014 55.8481 12.0014C56.1852 12.0014 56.6262 11.9495 56.8855 11.8976V11.6901C56.3149 11.6642 55.7703 11.0936 55.3553 10.6008C54.9403 10.0821 53.9028 8.62964 53.5397 8.18872C53.2285 7.82561 52.9173 7.64406 52.9173 7.64406C54.266 7.30689 55.1478 6.52879 55.1478 5.33572C55.1997 3.83141 54.0066 2.94957 51.9057 2.94957ZM79.8133 2.94957C79.3205 2.94957 78.1015 3.02738 77.6606 3.02738C77.4012 3.02738 76.4675 3.00144 76.1563 3.00144V3.23487C76.701 3.33861 76.9344 3.59798 76.9344 4.01296V10.8083C76.9344 11.2752 76.6491 11.5345 76.1563 11.6123V11.8458C76.4416 11.8458 77.4012 11.8198 77.6347 11.8198C77.92 11.8198 78.8796 11.8458 79.1649 11.8458V11.6123C78.6462 11.5086 78.3349 11.2492 78.3349 10.8083V7.77374C78.4906 7.79968 78.6202 7.79968 78.7499 7.82561C79.4243 7.92936 79.7874 8.2406 80.0986 8.62964C80.5914 9.25212 81.4214 10.4971 81.9142 11.0677C82.4588 11.742 83.0554 12.0014 83.7816 12.0014C84.1188 12.0014 84.5597 11.9495 84.8191 11.8976V11.6901C84.2485 11.6642 83.7038 11.0936 83.2888 10.6008C82.8738 10.0821 81.8364 8.62964 81.4733 8.18872C81.162 7.82561 80.8508 7.64406 80.8508 7.64406C82.1995 7.30689 83.0813 6.52879 83.0813 5.33572C83.1072 3.83141 81.9401 2.94957 79.8133 2.94957ZM26.8771 3.00144V3.23487C27.318 3.33861 27.5774 3.54611 27.5774 3.98703V10.8602C27.5774 11.327 27.2921 11.5086 26.8771 11.6123V11.8458C27.0846 11.8458 28.0442 11.8198 28.2517 11.8198C28.5111 11.8198 29.4967 11.8458 29.7042 11.8458V11.6123C29.2633 11.5086 28.9779 11.327 28.9779 10.8602V7.61812H34.0874V10.8602C34.0874 11.327 33.8021 11.5086 33.3871 11.6123V11.8458C33.5946 11.8458 34.5802 11.8198 34.8396 11.8198C35.073 11.8198 36.0327 11.8458 36.2401 11.8458V11.6123C35.7992 11.5086 35.5139 11.3011 35.5139 10.8602V3.98703C35.5139 3.52017 35.8252 3.33861 36.2401 3.23487V3.00144C36.0327 3.00144 35.073 3.02738 34.8396 3.02738C34.5802 3.02738 33.6206 3.00144 33.3871 3.00144V3.23487C33.8281 3.33861 34.0874 3.52017 34.0874 3.98703V6.86597H29.0039V3.98703C29.0039 3.52017 29.3151 3.33861 29.7301 3.23487V3.00144C29.5226 3.00144 28.537 3.02738 28.2777 3.02738C28.0442 3.02738 27.1105 3.00144 26.8771 3.00144ZM56.6262 3.00144V3.26081C57.119 3.36455 57.4302 3.67579 57.6117 4.11671L61.1132 11.8976H61.8394L65.0036 4.40201C65.3149 3.70172 65.6261 3.39049 66.1708 3.23487V3.00144C65.8595 3.00144 65.0296 3.02738 64.8221 3.02738C64.5886 3.02738 63.9143 3.00144 63.629 3.00144V3.23487C63.9921 3.31268 64.2515 3.49423 64.2515 3.77953C64.2515 4.0389 64.1218 4.35014 63.9662 4.76512L61.8134 9.97834L59.531 4.79105C59.2976 4.24639 59.1679 3.96109 59.1679 3.7536C59.1679 3.4683 59.5051 3.28674 59.7904 3.23487V3.00144C59.4792 3.00144 58.4677 3.02738 58.2342 3.02738C58.0008 3.05331 56.9374 3.02738 56.6262 3.00144ZM89.8248 3.52017C92.2887 3.52017 93.7412 5.12823 93.7412 7.43657C93.7412 9.6671 92.3665 11.2492 89.721 11.2492C89.2542 11.2492 88.6576 11.2233 88.3464 11.1455V3.59798C88.6836 3.57204 89.306 3.52017 89.8248 3.52017ZM51.4908 3.52017C52.9432 3.52017 53.7472 4.24639 53.7472 5.4654C53.7472 6.29537 53.2285 7.25501 51.5686 7.25501C51.1536 7.25501 50.7386 7.22908 50.4533 7.20314V3.62391C50.7386 3.57204 51.1795 3.52017 51.4908 3.52017ZM79.3983 3.52017C80.8508 3.52017 81.6548 4.24639 81.6548 5.4654C81.6548 6.29537 81.1361 7.25501 79.4762 7.25501C79.0612 7.25501 78.6462 7.22908 78.3609 7.20314V3.62391C78.6721 3.57204 79.0871 3.52017 79.3983 3.52017ZM41.8424 5.02448L43.243 8.31841H40.5197L41.8424 5.02448ZM69.9315 5.02448L71.3321 8.31841H68.6088L69.9315 5.02448ZM69.9575 15.9178C68.9978 15.9178 68.4013 16.4106 68.4013 17.1887C68.4013 18.0186 69.2831 18.4077 69.7241 18.6152C70.3206 18.9264 70.8134 19.1598 70.8134 19.6786C70.8134 20.1713 70.4243 20.4566 69.8019 20.4566C69.5166 20.4566 69.1794 20.3788 68.9719 20.2232C68.7644 20.0935 68.6088 19.8342 68.531 19.5748H68.4013L68.4272 20.5604C68.7644 20.6123 69.1535 20.7938 69.8278 20.7938C70.9171 20.7938 71.5396 20.2492 71.5396 19.4711C71.5396 18.667 70.8393 18.3039 70.1909 18.0186C69.6203 17.7593 69.1016 17.4999 69.1016 16.9812C69.1016 16.6181 69.335 16.2549 69.9575 16.2549C70.5281 16.2549 71.0209 16.4624 71.2024 17.0071H71.3321V16.0475C70.8912 16.0734 70.58 15.9178 69.9575 15.9178ZM61.7097 15.9437C61.6319 15.9956 61.4503 15.9956 61.3725 15.9956H58.4677V16.1253C58.753 16.1771 58.8826 16.3068 58.8826 16.5402V20.1195C58.8826 20.3788 58.727 20.5085 58.4677 20.5604V20.6901C58.6233 20.6901 59.142 20.6641 59.2717 20.6641H60.7241C61.2428 20.6641 61.5022 20.6641 61.9431 20.716L62.0728 19.7564L61.9431 19.7304C61.7875 20.0935 61.6319 20.327 61.0094 20.327H59.6348V18.4077H60.6204C60.7501 18.4077 60.9316 18.4336 61.0094 18.4336C61.2169 18.4855 61.2947 18.6152 61.3725 18.8226H61.5022C61.5022 18.667 61.5022 18.3299 61.5022 18.2261C61.5022 18.1224 61.5022 17.8111 61.5022 17.6555H61.3725C61.3207 17.8371 61.2428 17.9668 61.0094 18.0186C60.9316 18.0446 60.776 18.0446 60.6204 18.0446H59.6348V16.4106H60.9057C61.4763 16.4106 61.58 16.644 61.6838 16.9552H61.8134L61.8394 16.0215L61.7097 15.9437ZM74.9632 15.9696V16.9293H75.0929C75.2226 16.5143 75.456 16.4106 75.7672 16.4106H76.7788V20.1195C76.7788 20.3788 76.6491 20.4826 76.3638 20.5604V20.6901C76.5194 20.6901 77.0641 20.6641 77.1678 20.6641C77.3234 20.6641 77.8162 20.6901 77.9718 20.6901V20.5604C77.6865 20.5085 77.5569 20.3788 77.5569 20.1195V16.4106H78.5424C78.8537 16.4106 79.0871 16.5143 79.2168 16.9293H79.3465V15.9696C79.0093 15.9956 78.7759 16.0215 77.1678 16.0215C75.5338 16.0215 75.2745 15.9956 74.9632 15.9696ZM65.1592 15.9696C64.8999 15.9696 64.2515 15.9956 64.018 15.9956C63.8884 15.9956 63.3956 15.9696 63.24 15.9696V16.0993C63.5253 16.1512 63.6549 16.2809 63.6549 16.5143V20.0935C63.6549 20.3529 63.4993 20.4826 63.24 20.5345V20.6641C63.3956 20.6641 63.8884 20.6382 64.018 20.6382C64.1737 20.6382 64.6665 20.6641 64.8221 20.6641V20.5604C64.5368 20.5085 64.3812 20.3788 64.3812 20.1195V18.5114C64.459 18.5114 64.5368 18.5374 64.5886 18.5374C64.9518 18.5892 65.1333 18.7708 65.3149 18.9523C65.5742 19.2895 65.9892 19.912 66.2486 20.2232C66.5339 20.5863 66.8451 20.716 67.2342 20.716C67.4157 20.716 67.6491 20.6901 67.7788 20.6641V20.5604C67.4676 20.5345 67.1823 20.2492 66.9748 19.9898C66.7414 19.7304 66.2226 18.9523 66.0152 18.7189C65.8595 18.5373 65.678 18.4336 65.678 18.4336C66.4042 18.252 66.8451 17.8371 66.8451 17.2146C66.9229 16.4365 66.3004 15.9696 65.1592 15.9696ZM38.4188 15.9956V16.1253C38.6782 16.1771 38.8079 16.3328 38.8079 16.5402V19.108C38.8079 20.1454 39.4822 20.7419 40.779 20.7419C42.1796 20.7419 42.828 20.0935 42.828 19.0042V16.5402C42.828 16.3328 42.9577 16.2031 43.243 16.1512V16.0215C43.1392 16.0215 42.6983 16.0475 42.5946 16.0475C42.4649 16.0475 42.0499 16.0215 41.9462 16.0215V16.1512C42.2315 16.2031 42.3611 16.3587 42.3611 16.5402V19.1598C42.3611 19.9898 41.7387 20.3529 40.9346 20.3529C40.0009 20.3529 39.56 19.886 39.56 19.082V16.5402C39.56 16.3328 39.6897 16.1771 39.9491 16.1253V15.9956C39.7934 15.9956 39.3266 16.0215 39.1969 16.0215C39.0413 16.0215 38.5744 15.9956 38.4188 15.9956ZM44.3582 15.9956V16.1253C44.6176 16.2031 44.7992 16.3328 44.7992 16.6181V20.1195C44.7992 20.301 44.6695 20.4566 44.3842 20.5085V20.6382C44.4879 20.6382 44.9029 20.6123 45.0326 20.6123C45.1623 20.6123 45.5513 20.6382 45.681 20.6382V20.5604C45.3957 20.5085 45.266 20.3529 45.266 20.1713V17.0849L47.9893 20.2492C48.3265 20.6123 48.534 20.7419 48.6637 20.7679H48.8452V16.5402C48.8452 16.3328 48.9749 16.2031 49.2862 16.1512V16.0215C49.1824 16.0215 48.7674 16.0475 48.6378 16.0475C48.5081 16.0475 48.119 16.0215 47.9893 16.0215V16.1512C48.2746 16.2031 48.4043 16.3587 48.4043 16.5402V19.6007L45.3438 15.9956C45.2141 16.0215 45.0326 16.0215 44.9029 16.0215C44.7732 16.0215 44.5139 16.0215 44.3582 15.9956ZM52.8135 15.9956V16.1253C53.0729 16.1771 53.2285 16.3587 53.3322 16.5662L55.1737 20.6641H55.5628L57.2486 16.7218C57.4043 16.3587 57.5858 16.2031 57.8711 16.1253V15.9956C57.7155 15.9956 57.2746 16.0215 57.1708 16.0215C57.0671 16.0215 56.678 15.9956 56.5224 15.9956V16.1253C56.704 16.1512 56.8337 16.2549 56.8337 16.4106C56.8337 16.5402 56.7559 16.7218 56.678 16.9293L55.5368 19.6786L54.3438 16.9293C54.2141 16.644 54.1363 16.4884 54.1363 16.3846C54.1363 16.229 54.3178 16.1512 54.4475 16.1253V15.9956C54.266 15.9956 53.7732 16.0215 53.6694 16.0215C53.5397 16.0215 52.9691 15.9956 52.8135 15.9956ZM79.6577 15.9956V16.1253C79.8911 16.2031 80.0468 16.3846 80.2542 16.7477L81.4473 18.667V20.1454C81.4473 20.301 81.3176 20.5085 81.0323 20.5604V20.6901C81.2139 20.6901 81.6807 20.6641 81.7845 20.6641C81.9401 20.6641 82.4329 20.6901 82.5626 20.6901V20.5604C82.3032 20.5085 82.1735 20.301 82.1735 20.1454V18.667L83.211 16.9034C83.4185 16.5662 83.626 16.2549 83.9631 16.1253V15.9956C83.8075 15.9956 83.4444 16.0215 83.3666 16.0215C83.2629 16.0215 82.9516 15.9956 82.796 15.9956V16.1253C82.9516 16.1512 83.0035 16.229 83.0035 16.3068C83.0035 16.4106 82.9516 16.5662 82.8479 16.7218L81.966 18.2261C81.966 18.2261 81.1101 16.8256 81.0583 16.7218C80.9805 16.5921 80.9026 16.4624 80.9026 16.3587C80.9026 16.229 80.9805 16.1512 81.1361 16.1253V15.9956C80.9545 15.9956 80.4617 16.0215 80.332 16.0215C80.2802 16.0215 79.8133 15.9956 79.6577 15.9956ZM50.6089 16.0215V16.1512C50.8942 16.2031 51.0239 16.3328 51.0239 16.5921V20.1454C51.0239 20.4048 50.8942 20.5085 50.6089 20.5863V20.716C50.7645 20.716 51.2833 20.6901 51.4129 20.6901C51.5686 20.6901 52.0614 20.716 52.217 20.716V20.5604C51.9317 20.5085 51.802 20.3788 51.802 20.1195V16.5662C51.802 16.3068 51.9576 16.2031 52.217 16.1253V15.9956C52.0614 15.9956 51.5426 16.0215 51.4129 16.0215C51.2573 16.0215 50.7645 16.0215 50.6089 16.0215ZM72.6549 16.0215V16.1512C72.9402 16.2031 73.0699 16.3328 73.0699 16.5921V20.1454C73.0699 20.4048 72.9402 20.5085 72.6549 20.5863V20.716C72.8105 20.716 73.3292 20.6901 73.4589 20.6901C73.6145 20.6901 74.1073 20.716 74.2629 20.716V20.5604C73.9776 20.5085 73.8479 20.3788 73.8479 20.1195V16.5662C73.8479 16.3068 74.0036 16.2031 74.2629 16.1253V15.9956C74.1073 15.9956 73.5886 16.0215 73.4589 16.0215C73.3292 16.0215 72.8105 16.0215 72.6549 16.0215ZM64.9518 16.2809C65.7299 16.2809 66.1448 16.6699 66.1448 17.2924C66.1448 17.7333 65.8595 18.2521 65.0036 18.2521C64.7961 18.2521 64.5627 18.2521 64.4071 18.2261V16.3328C64.5627 16.3068 64.7961 16.2809 64.9518 16.2809Z" fill="#000000"/>
<path d="M0.939453 0.537109V7.77337C1.30256 13.9203 3.92214 17.8626 6.04893 20.0932C8.20165 22.3496 10.3284 23.3352 10.6137 23.4649C19.2246 17.9923 20.1583 10.6782 20.1583 7.7993V0.563043L0.939453 0.537109Z" fill="#000000"/>
<path d="M17.851 2.66406C17.3063 3.10498 16.5282 2.89749 16.5282 2.89749C15.802 2.87155 15.5686 2.92343 15.5686 2.92343C15.413 3.15685 15.1277 2.94936 15.1277 2.94936C15.0758 2.89749 14.8683 2.89749 14.8683 2.89749C13.4159 3.00123 13.0268 2.74187 13.0268 2.74187C12.975 2.69 12.7156 2.69 12.7156 2.69C12.6897 2.74187 12.56 2.89749 12.56 2.89749C12.5081 2.94936 11.9894 2.92343 11.9894 2.92343C11.7041 2.89749 11.6781 3.07905 11.6781 3.07905L11.6522 3.72746C11.6781 4.1165 11.5744 4.03869 11.5744 4.03869C11.4966 4.14244 11.0557 4.1165 11.0557 4.1165C10.6926 4.14244 10.7444 4.6871 10.7444 4.6871C10.7963 5.05021 11.341 4.92053 11.341 4.92053C11.7041 4.94647 11.6522 5.15396 11.6522 5.15396C11.6263 5.30958 11.6781 7.38449 11.6781 7.38449C11.6522 7.69573 11.4188 7.56604 11.4188 7.56604C10.6666 7.54011 10.7704 8.05884 10.7704 8.05884C10.7963 8.55163 11.341 8.47382 11.341 8.47382C11.7041 8.47382 11.6781 8.68131 11.6781 8.68131C11.7041 8.73318 11.6522 9.48534 11.6522 9.48534C11.7041 9.84845 12.0412 9.7447 12.0412 9.7447L14.7386 9.82251C15.5167 10.3931 15.6983 9.84845 15.6983 9.84845C15.7242 9.79657 15.8539 9.79658 15.8539 9.79658C16.0614 9.84845 18.4994 9.82251 18.5513 9.82251C18.9922 9.92626 18.9922 9.51127 18.9922 9.51127L19.0181 8.70725C19.0441 8.55163 19.2775 8.52569 19.2775 8.52569C20.0037 8.62944 19.9519 8.0329 19.9519 8.0329C19.9259 7.56604 19.4331 7.59198 19.4331 7.59198C19.0441 7.61792 19.07 7.33262 19.07 7.33262C19.0959 7.12512 19.096 5.30958 19.096 5.30958C19.07 5.20583 19.1997 5.02428 19.1997 5.02428C20.0815 5.10209 19.9259 4.53148 19.9259 4.53148C20.0037 4.03869 19.4591 4.14244 19.4591 4.14244C18.9922 4.14244 19.096 3.88307 19.096 3.88307C19.1738 3.2606 19.0181 3.02717 19.0181 3.02717C18.9403 2.92343 18.4475 2.9753 18.4475 2.9753C18.2919 3.07904 18.0585 2.71593 18.0585 2.71593L17.851 2.66406ZM8.3064 2.66406C7.76174 3.10498 6.98365 2.89749 6.98365 2.89749C6.25743 2.87155 6.024 2.92343 6.024 2.92343C5.86838 3.15685 5.58308 2.94936 5.58308 2.94936C5.53121 2.89749 5.32372 2.89749 5.32372 2.89749C3.87128 3.00123 3.48223 2.74187 3.48223 2.74187C3.43036 2.69 3.17099 2.69 3.17099 2.69C3.14506 2.74187 3.01538 2.89749 3.01538 2.89749C2.93757 2.94936 2.44477 2.92343 2.44477 2.92343C2.18541 2.89749 2.13354 3.07905 2.13354 3.07905L2.1076 3.72746C2.13354 4.1165 2.02979 4.03869 2.02979 4.03869C1.95198 4.14244 1.51106 4.1165 1.51106 4.1165C1.14795 4.14244 1.19983 4.6871 1.19983 4.6871C1.2517 5.05021 1.79636 4.92053 1.79636 4.92053C2.15947 4.94647 2.1076 5.15396 2.1076 5.15396C2.08167 5.30958 2.13354 7.41043 2.13354 7.41043C2.1076 7.72166 1.87417 7.59198 1.87417 7.59198C1.12202 7.56604 1.22576 8.08477 1.22576 8.08477C1.2517 8.57756 1.79636 8.49975 1.79636 8.49975C2.15947 8.49975 2.13354 8.70725 2.13354 8.70725C2.15947 8.75912 2.1076 9.51127 2.1076 9.51127C2.15947 9.87438 2.49665 9.77064 2.49665 9.77064L5.19403 9.82251C5.97213 10.3931 6.15368 9.84845 6.15368 9.84845C6.17962 9.79657 6.3093 9.79658 6.3093 9.79658C6.51679 9.84845 8.95481 9.82251 9.00669 9.82251C9.44761 9.92626 9.4476 9.51127 9.4476 9.51127L9.47354 8.70725C9.49948 8.55163 9.7329 8.52569 9.7329 8.52569C10.4591 8.62944 10.4073 8.0329 10.4073 8.0329C10.3813 7.56604 9.88852 7.59198 9.88852 7.59198C9.49948 7.61792 9.52541 7.33262 9.52541 7.33262C9.55135 7.12512 9.55135 5.30958 9.55135 5.30958C9.52541 5.20583 9.6551 5.02428 9.6551 5.02428C10.5369 5.10209 10.3813 4.53148 10.3813 4.53148C10.4332 4.03869 9.91446 4.14244 9.91446 4.14244C9.44761 4.14244 9.55135 3.88307 9.55135 3.88307C9.62916 3.2606 9.47354 3.02717 9.47354 3.02717C9.39573 2.92343 8.90294 2.9753 8.90294 2.9753C8.74732 3.07904 8.51389 2.71593 8.51389 2.71593L8.3064 2.66406ZM7.21707 12.053C7.11333 12.053 7.00958 12.2605 7.00958 12.2605C6.85396 12.5199 6.33524 12.3643 6.33524 12.3643C5.94619 12.468 5.99806 12.6755 5.99806 12.6755L6.024 13.4536C5.99806 13.6611 5.71276 13.5833 5.71276 13.5833C5.19403 13.4795 5.01248 13.8167 5.01248 13.8167C4.90873 13.9723 4.98654 14.1798 4.98654 14.1798C5.06435 14.4911 5.4534 14.4651 5.4534 14.4651C5.60902 14.5689 5.81651 14.4911 5.81651 14.4911C6.024 14.4911 5.97213 14.7245 5.97213 14.7245C5.99806 14.8542 5.94619 16.7475 5.94619 16.7475C5.94619 16.9031 5.92025 17.0069 5.92025 17.0069C5.92025 17.1625 5.40152 17.0588 5.40152 17.0588C5.06435 17.0847 4.96061 17.4219 4.96061 17.4219C4.85686 17.6553 5.19403 17.8887 5.19403 17.8887C5.21997 17.9406 5.84244 17.9925 5.84244 17.9925C5.99806 18.0184 5.99806 18.2518 5.99806 18.2518C5.97213 18.3556 6.04993 19.1596 6.04993 19.1596C6.10181 19.3671 6.72428 19.3152 6.72428 19.3152C6.72428 19.3152 9.68103 19.2634 9.7329 19.2893C9.78478 19.3152 9.96633 19.2634 9.96633 19.2634L10.1998 19.4449C10.4851 19.6784 10.8482 19.3671 10.8482 19.3671L11.1594 19.3152C11.2632 19.3412 13.9865 19.2893 13.9865 19.2893C14.2199 19.3412 14.3237 19.2634 14.3237 19.2634L14.7646 19.2374C15.0758 19.2374 15.0499 18.8484 15.0499 18.8484V18.2778C15.0758 17.9665 15.2314 17.9665 15.2314 17.9665L15.6464 17.8887L15.828 17.785C16.0873 17.7072 15.9576 17.2403 15.9576 17.2403C15.802 16.955 15.3092 17.0069 15.3092 17.0069C14.9721 17.0328 14.998 16.8253 14.998 16.8253L15.0499 14.7245C15.0758 14.5429 15.1796 14.4133 15.1796 14.4133C15.2833 14.4392 15.6205 14.3354 15.6205 14.3354C15.9576 14.2576 15.9317 13.9464 15.9317 13.9464C15.9836 13.713 15.5945 13.5574 15.5945 13.5574H15.1277C14.9721 13.5314 15.0239 12.9349 15.0239 12.9349V12.6496C15.0499 12.4162 14.7127 12.3124 14.7127 12.3124L14.1162 12.3383C14.0643 12.2346 13.8309 12.1827 13.8309 12.1827C13.7271 12.1309 13.5456 12.1309 13.5456 12.1309C13.1046 12.4421 12.0672 12.3643 12.0672 12.3643L11.0038 12.2865L10.6147 12.3643C10.5888 12.4421 10.4591 12.494 10.4591 12.494L10.3554 12.468C10.2516 12.3643 9.91446 12.3124 9.91446 12.3124C9.88852 12.2605 8.43608 12.3643 8.43608 12.3643C7.60612 12.3902 7.29488 12.1049 7.29488 12.1049C7.29488 12.053 7.26895 12.053 7.21707 12.053Z" fill="#000000"/>
<path d="M3.53449 2.94922C3.53449 2.94922 3.35294 2.97515 3.35294 3.10483L3.30106 8.24024C3.30106 8.24024 3.27513 8.47367 3.69011 8.52555C3.69011 8.52555 4.15696 8.57742 4.26071 8.52555C4.26071 8.52555 4.57195 8.49961 5.35004 8.55148C5.35004 8.55148 5.53159 8.73304 5.55753 8.49961C5.55753 8.49961 5.68721 4.32385 5.6094 3.46795C5.6094 3.46795 5.58347 3.10484 5.3241 3.0789C5.3241 3.0789 4.10509 3.18265 4.00135 3.0789L3.53449 2.94922ZM13.0532 2.94922C13.0532 2.94922 12.8716 2.97515 12.8716 3.10483L12.8197 8.24024C12.8197 8.24024 12.7938 8.47367 13.2088 8.52555C13.2088 8.52555 13.6756 8.57742 13.7794 8.52555C13.7794 8.52555 14.0906 8.49961 14.8687 8.55148C14.8687 8.55148 15.0503 8.73304 15.0762 8.49961C15.0762 8.49961 15.2059 4.32385 15.1281 3.46795C15.1281 3.46795 15.1021 3.10484 14.8428 3.0789C14.8428 3.0789 13.6238 3.18265 13.52 3.0789L13.0532 2.94922ZM8.15117 2.94922C8.0993 2.94922 8.04743 2.97515 7.99555 3.00109C7.99555 3.00109 8.02149 3.13077 6.51718 3.0789C6.51718 3.0789 5.94658 3.05296 5.92064 3.31233C5.92064 3.31233 5.86877 5.72441 5.8947 5.80222L5.86877 7.82526L5.79096 8.52555C5.79096 8.52555 5.8947 8.68116 5.97251 8.57742C5.97251 8.57742 6.49124 8.44774 6.80248 8.49961C6.80248 8.49961 7.83993 8.60336 8.04742 8.44774C8.04742 8.44774 8.20304 8.52555 8.25492 8.26618C8.25492 8.26618 8.30679 3.77918 8.28085 3.70137C8.28085 3.70137 8.33273 3.05296 8.30679 3.00109C8.28085 3.02703 8.25492 2.94922 8.15117 2.94922ZM17.6698 2.97515C17.618 2.97515 17.5661 3.00109 17.5142 3.02702C17.5142 3.02702 17.5402 3.15671 16.0358 3.10483C16.0358 3.10483 15.4652 3.0789 15.4393 3.33826C15.4393 3.33826 15.3874 5.75035 15.4134 5.82816L15.3874 7.8512L15.3096 8.55148C15.3096 8.55148 15.4134 8.7071 15.4912 8.60335C15.4912 8.60335 16.0099 8.47367 16.3211 8.52555C16.3211 8.52555 17.3586 8.62929 17.5661 8.44774C17.5661 8.44774 17.7217 8.52555 17.7736 8.26618C17.7736 8.26618 17.8255 3.77918 17.7995 3.70137C17.7995 3.70137 17.8514 3.05296 17.8255 3.00109C17.7995 3.05296 17.7995 2.94922 17.6698 2.97515ZM2.65265 3.10483C2.57484 3.10483 2.49703 3.15671 2.36735 3.26045L2.34141 3.90887C2.34141 3.90887 2.34142 4.27197 2.00424 4.27197C2.00424 4.27197 1.6152 4.24604 1.43364 4.42759C1.43364 4.42759 1.32989 4.7907 1.693 4.71289C1.693 4.71289 2.26361 4.71289 2.28954 4.94632L2.26361 7.35841C2.26361 7.35841 2.39329 7.74745 1.95237 7.74745C1.95237 7.74745 1.4077 7.72152 1.43364 8.05869C1.43364 8.05869 1.53739 8.34399 2.00424 8.24024C2.00424 8.24024 2.34141 8.29212 2.31548 8.62929V9.25176C2.31548 9.25176 2.28954 9.48519 2.60078 9.51113H5.09068C5.09068 9.51113 5.22036 9.53707 5.22036 9.35551C5.22036 9.35551 5.19442 9.22583 5.01287 9.22583L2.93795 9.19989C2.93795 9.19989 2.60078 9.30364 2.57484 8.81084C2.57484 8.81084 2.60078 4.29791 2.60078 4.2201C2.57484 4.14229 2.62672 4.27197 2.62672 4.27197C2.62672 4.27197 2.57484 3.49388 2.78233 3.15671C2.78233 3.20858 2.7564 3.10483 2.65265 3.10483ZM12.1713 3.10483C12.0935 3.10483 12.0157 3.15671 11.8601 3.26045L11.8341 3.90887C11.8341 3.90887 11.8341 4.27197 11.497 4.27197C11.497 4.27197 11.1079 4.24604 10.9264 4.42759C10.9264 4.42759 10.8226 4.7907 11.1857 4.71289C11.1857 4.71289 11.7563 4.71289 11.7823 4.94632L11.7563 7.35841C11.7563 7.35841 11.886 7.74745 11.4451 7.74745C11.4451 7.74745 10.9004 7.72152 10.9264 8.05869C10.9264 8.05869 11.0301 8.34399 11.497 8.24024C11.497 8.24024 11.8341 8.29212 11.8082 8.62929V9.22583C11.8082 9.22583 11.7823 9.45926 12.0935 9.48519H14.5834C14.5834 9.48519 14.7131 9.51113 14.7131 9.32957C14.7131 9.32957 14.6871 9.19989 14.5056 9.19989L12.4307 9.17396C12.4307 9.17396 12.0935 9.2777 12.0676 8.78491C12.0676 8.78491 12.0935 4.27197 12.0935 4.19416C12.0676 4.11635 12.1194 4.27197 12.1194 4.27197C12.1194 4.27197 12.0676 3.49388 12.2751 3.15671C12.301 3.20858 12.2751 3.10483 12.1713 3.10483ZM9.08488 3.13077C8.90333 3.10484 8.90333 3.31233 8.90333 3.31233C8.9552 3.3642 9.00707 3.59763 9.00707 3.59763C9.03301 4.14229 9.00707 4.76477 9.00707 5.33537C9.00707 7.25466 8.92926 8.9924 8.92926 8.9924C8.92926 9.38145 8.72177 9.2777 8.72177 9.2777L6.4653 9.30364C6.23188 9.30364 6.23188 9.43332 6.23188 9.43332C6.25781 9.61488 6.49124 9.53707 6.49124 9.53707C6.69873 9.58894 8.92926 9.563 8.92926 9.563C9.26644 9.61488 9.2405 9.17396 9.2405 9.17396C9.29237 8.4218 9.34425 8.34399 9.34425 8.34399C9.42205 8.29212 9.78516 8.29212 9.78516 8.29212C10.3817 8.31805 10.0964 7.92901 10.0964 7.92901C10.0186 7.79933 9.62955 7.82526 9.62955 7.82526C9.2405 7.8512 9.26644 7.43621 9.26644 7.43621L9.31831 5.10194C9.26644 4.92038 9.42206 4.81664 9.42206 4.81664H9.78516C10.3039 4.84258 10.1742 4.53134 10.1742 4.53134C10.1483 4.37572 9.73329 4.29791 9.73329 4.29791C9.29237 4.34978 9.34425 4.11636 9.34425 4.11636L9.31831 3.54575C9.37018 3.18264 9.13676 3.15671 9.13676 3.15671L9.08488 3.13077ZM18.6035 3.13077C18.422 3.10484 18.422 3.31233 18.422 3.31233C18.4739 3.3642 18.5257 3.59763 18.5257 3.59763C18.5517 4.14229 18.5257 4.76477 18.5257 5.33537C18.5257 7.25466 18.4479 8.9924 18.4479 8.9924C18.4479 9.38145 18.2404 9.25176 18.2404 9.25176L16.0099 9.2777C15.7765 9.2777 15.7765 9.40738 15.7765 9.40738C15.8024 9.58894 16.0358 9.51113 16.0358 9.51113C16.2433 9.563 18.4739 9.53707 18.4739 9.53707C18.811 9.58894 18.7851 9.14802 18.7851 9.14802C18.837 8.39586 18.8888 8.31805 18.8888 8.31805C18.9667 8.24025 19.3298 8.26618 19.3298 8.26618C19.9263 8.29212 19.641 7.90307 19.641 7.90307C19.5632 7.77339 19.1741 7.79933 19.1741 7.79933C18.7851 7.82526 18.811 7.41028 18.811 7.41028L18.8629 5.076C18.811 4.89445 18.9667 4.7907 18.9667 4.7907H19.3298C19.8485 4.81664 19.7188 4.5054 19.7188 4.5054C19.6929 4.34978 19.2779 4.27197 19.2779 4.27197C18.837 4.34978 18.8888 4.09042 18.8888 4.09042L18.8629 3.51982C18.9148 3.15671 18.6814 3.13077 18.6814 3.13077H18.6035ZM8.56615 3.18264C8.51428 3.18264 8.48834 3.20858 8.43647 3.28639L8.41053 8.34399C8.41053 8.34399 8.54022 8.78491 8.74771 8.73304C8.74771 8.73304 8.77364 8.62929 8.79958 8.47367L8.85146 3.6495C8.85146 3.67544 8.74771 3.15671 8.56615 3.18264ZM18.1108 3.18264C18.0589 3.18264 18.0329 3.20858 17.9811 3.28639L17.9551 8.34399C17.9551 8.34399 18.0848 8.78491 18.2923 8.75897C18.2923 8.75897 18.3182 8.65523 18.3442 8.49961L18.3961 3.67544C18.3961 3.67544 18.2923 3.15671 18.1108 3.18264ZM12.6382 3.23452C12.3269 3.20858 12.301 3.80512 12.301 3.80512L12.2751 8.60335C12.301 8.83678 12.3788 8.78491 12.3788 8.78491C12.69 8.60336 12.6382 8.26618 12.6382 8.26618C12.6382 8.26618 12.69 3.72731 12.69 3.6495C12.6641 3.54576 12.6382 3.23452 12.6382 3.23452ZM3.11951 3.23452C2.80827 3.20858 2.78233 3.80512 2.78233 3.80512L2.7564 8.60335C2.78234 8.83678 2.86014 8.78491 2.86014 8.78491C3.17138 8.60336 3.11951 8.26618 3.11951 8.26618C3.11951 8.26618 3.17138 3.72731 3.17138 3.6495C3.14544 3.54576 3.11951 3.23452 3.11951 3.23452ZM12.8716 8.62929C12.8197 8.62929 12.716 8.62929 12.5863 8.83678C12.5863 8.83678 12.5344 9.07021 12.7679 9.01834H14.4278L14.8687 9.12208C14.8687 9.12208 15.3356 9.01834 14.8687 8.75897C14.8687 8.75897 13.3903 8.78491 13.2606 8.73304C13.2606 8.73304 12.9494 8.65523 12.8975 8.62929H12.8716ZM3.30106 8.65523C3.24919 8.65523 3.11951 8.65523 3.01576 8.86272C3.01576 8.86272 2.96389 9.09615 3.19732 9.04428H4.85725L5.29817 9.14802C5.29817 9.14802 5.76502 9.04428 5.29817 8.78491C5.29817 8.78491 3.81979 8.81085 3.69011 8.75897C3.69011 8.75897 3.37887 8.68117 3.327 8.65523H3.30106ZM17.9033 8.68116C17.7995 8.68116 17.6698 8.7071 17.6698 8.7071C17.4105 8.88866 15.8024 8.75897 15.8024 8.75897C15.6987 8.75897 15.569 8.91459 15.569 8.91459C15.5171 9.19989 16.0099 9.09615 16.0099 9.09615C16.1136 9.09615 17.9033 9.07021 17.9033 9.07021C18.1886 9.14802 18.2145 9.01834 18.2145 9.01834C18.2145 8.91459 17.9811 8.7071 17.9811 8.7071L17.9033 8.68116ZM8.33273 8.7071C8.22898 8.7071 8.0993 8.73304 8.0993 8.73304C7.83993 8.91459 6.23188 8.78491 6.23188 8.78491C6.12813 8.78491 5.99845 8.94053 5.99845 8.94053C5.94658 9.22583 6.43937 9.12208 6.43937 9.12208C6.54311 9.12208 8.35866 9.09615 8.35866 9.09615C8.64396 9.17396 8.6699 9.01834 8.6699 9.01834C8.6699 8.91459 8.43647 8.7071 8.43647 8.7071H8.33273ZM15.3874 9.04428H15.3356C15.3356 9.04428 15.0243 9.04428 15.0503 9.43332C15.0503 9.43332 15.0762 9.74456 15.4134 9.74456C15.4134 9.74456 15.6987 9.69268 15.6727 9.38145C15.6468 9.40738 15.5171 9.09615 15.3874 9.04428ZM5.81689 9.09615H5.76502C5.76502 9.09615 5.45379 9.09615 5.47972 9.48519C5.47972 9.48519 5.50566 9.79643 5.84283 9.79643C5.84283 9.79643 6.12813 9.74456 6.10219 9.43332C6.07626 9.43332 5.94658 9.12208 5.81689 9.09615ZM13.5459 12.3641C12.8197 12.7272 12.7679 12.5198 12.5344 12.5716C12.301 12.6235 11.4192 12.5716 11.3673 12.5457C11.2895 12.5198 10.9004 12.5716 10.9004 12.5716C10.6411 12.5976 10.5892 12.8051 10.5892 12.8051L10.5633 13.8684L10.5114 14.1019L10.4076 14.1797L10.3039 13.8684L10.3298 12.8829C10.2261 12.5198 9.91485 12.5976 9.91485 12.5976C9.70736 12.5457 8.87739 12.5976 8.87739 12.5976C8.51428 12.6494 8.12524 12.5716 8.12524 12.5716C7.60651 12.6494 7.50276 12.4679 7.50276 12.4679C7.2434 12.3641 7.2434 12.5198 7.2434 12.5198C7.29527 12.6494 7.26933 12.9088 7.26933 12.9088C7.29527 13.0385 7.2434 14.1537 7.2434 14.1537C7.21746 14.2575 7.2434 15.4765 7.2434 15.4765C7.29527 15.5543 7.21746 17.7589 7.21746 17.7589C7.26933 18.0442 7.814 18.0183 7.814 18.0183C7.86587 18.0701 9.91485 18.0442 9.91485 18.0442C10.252 18.1998 10.278 18.0183 10.278 18.0183C10.3558 17.5255 10.278 16.5918 10.3039 16.4102C10.3558 16.0471 10.3298 15.6581 10.3298 15.6581L10.4854 15.6321L10.5114 16.4362C10.5633 17.1624 10.5114 17.9145 10.5114 17.9145C10.5114 18.122 10.5892 18.148 10.5892 18.148C10.9782 17.9664 11.3154 17.9923 11.3154 17.9923C13.52 18.0442 13.1828 18.0183 13.1828 18.0183C13.7534 17.9923 13.7016 17.6292 13.7016 17.6292L13.6756 16.8252C13.7275 16.6436 13.7275 14.1537 13.7275 14.1537C13.6497 13.8944 13.7275 12.5457 13.7275 12.5457C13.7275 12.3901 13.5459 12.3641 13.5459 12.3641ZM14.6093 12.5716C14.5315 12.5716 14.4537 12.5976 14.4537 12.5976C14.4537 12.5976 14.4797 12.5976 14.4278 12.5716C14.3759 12.5457 14.3759 12.6754 14.3759 12.6754C14.5834 12.8829 14.5315 13.22 14.5315 13.22C14.5056 17.4995 14.5315 17.6552 14.5315 17.6552L14.4797 17.8108C14.4797 17.8108 14.4537 18.2517 14.4537 18.3814C14.4537 18.5111 14.3759 18.6148 14.3759 18.6148L14.1944 18.6667C14.0647 18.7704 13.2606 18.7186 13.2606 18.7186C13.2606 18.7186 11.3932 18.7704 11.2635 18.7445C11.1339 18.7186 10.9523 18.7964 10.9523 18.7964C10.9004 19.0298 11.1339 19.0557 11.1339 19.0557C11.5748 19.0298 14.324 19.0298 14.324 19.0298C14.765 19.0557 14.7909 18.8482 14.7909 18.8482C14.8687 18.7964 14.8168 18.4073 14.8168 18.4073C14.8428 18.3295 14.8946 17.8886 14.8946 17.8886C14.8428 17.707 15.5171 17.707 15.5171 17.707C15.8802 17.6811 15.7505 17.3699 15.7505 17.3699C15.7505 17.2142 15.2577 17.2402 15.2577 17.2402C14.8687 17.2661 14.8687 17.0067 14.8687 17.0067C14.8687 17.0067 14.9206 14.8281 14.8946 14.5169C14.8687 14.2056 15.1281 14.1537 15.1281 14.1537L15.5171 14.1278C15.8024 14.1797 15.8024 13.8944 15.8024 13.8944C15.8024 13.7647 15.3874 13.7128 15.3874 13.7128C15.2059 13.7647 15.1021 13.661 15.1021 13.661C14.8687 13.661 14.8946 13.1941 14.8946 13.1941C14.9984 12.9607 14.8687 12.5976 14.8687 12.5976C14.7909 12.5716 14.6871 12.5716 14.6093 12.5716ZM6.3875 12.5976C6.20594 12.6235 6.20594 13.4535 6.20594 13.4535C6.18 13.8425 5.84283 13.7906 5.84283 13.7906C5.37597 13.7388 5.22036 14.0241 5.22036 14.0241C5.19442 14.2834 5.66128 14.2834 5.66128 14.2834C5.73909 14.2575 5.99845 14.2575 5.99845 14.2575C6.28375 14.2834 6.23188 14.6984 6.23188 14.6984L6.18 17.0586C6.25781 17.3699 5.86877 17.318 5.86877 17.318C5.3241 17.2921 5.24629 17.5255 5.24629 17.5255C5.27223 17.8626 5.81689 17.7589 5.81689 17.7589C6.20594 17.8108 6.18 18.0442 6.18 18.0442C6.20594 18.122 6.20594 18.5629 6.20594 18.5629C6.20594 19.0298 6.33562 19.0557 6.33562 19.0557C6.3875 19.1595 7.19152 19.1076 7.19152 19.1076C8.3846 19.1595 9.73329 19.0298 9.73329 19.0298C9.91485 19.0557 9.91485 18.952 9.91485 18.952C10.0186 18.8223 9.75923 18.7704 9.75923 18.7704C9.57767 18.7186 6.77654 18.7964 6.77654 18.7964C6.49124 18.9001 6.51718 18.5111 6.51718 18.5111V17.6552C6.49124 17.5255 6.51718 17.1364 6.51718 17.1364C6.51718 17.1364 6.54311 15.1134 6.54311 15.0356C6.51718 14.9578 6.54311 14.2575 6.54311 14.2575L6.56905 13.1941C6.54311 13.1163 6.7506 12.7532 6.7506 12.7532C6.80248 12.5976 6.3875 12.5976 6.3875 12.5976ZM14.0387 12.6494C13.9869 12.6494 13.935 12.6754 13.935 12.8051L13.9091 17.733L13.8831 17.8367C13.8831 17.8367 14.0647 18.1998 14.1684 18.2517C14.1684 18.2517 14.35 18.4592 14.2981 18.0961L14.324 13.4794C14.324 13.4794 14.2722 13.3238 14.324 13.0644L14.1425 12.7013L14.0387 12.6494ZM6.93216 12.6754C6.69873 12.831 6.69873 13.1941 6.69873 13.1941L6.64686 18.122C6.64686 18.3814 6.80248 18.2258 6.80248 18.2258C7.08778 18.0183 7.03591 17.707 7.03591 17.707L7.06184 12.8829C7.06184 12.6754 6.93216 12.6754 6.93216 12.6754ZM7.16559 18.0183L7.03591 18.122C6.72467 18.4851 6.93216 18.5111 6.93216 18.5111L7.21746 18.4851L9.83704 18.5111C10.1223 18.5629 10.1483 18.3814 10.1483 18.3814C10.1742 18.2517 9.91485 18.2258 9.91485 18.2258L7.73619 18.1998C7.39902 18.2517 7.16559 18.0183 7.16559 18.0183ZM13.7794 18.0701H13.7275C13.6238 18.2258 13.2347 18.2258 13.2347 18.2258C13.2347 18.2258 13.52 18.1739 13.0532 18.2517C12.6122 18.3295 11.1339 18.2258 11.1339 18.2258C11.0301 18.1998 10.7448 18.3814 10.7448 18.3814C10.6929 18.6407 11.1857 18.5629 11.1857 18.5629C11.2635 18.537 13.8831 18.537 13.8831 18.537C14.1684 18.5629 14.1425 18.3814 14.1425 18.3814L13.9091 18.122L13.7794 18.0701ZM10.4076 18.5111C10.1742 18.5629 10.0964 18.8223 10.1483 19.0298C10.2001 19.2373 10.3817 19.2892 10.5373 19.2632C10.6929 19.2373 10.6929 19.0817 10.6929 18.8223C10.6929 18.537 10.4076 18.5111 10.4076 18.5111Z" fill="#000000"/>
<path d="M16.2687 4.66016C16.2687 4.66016 15.9575 4.68609 15.9834 4.81578L16.1391 5.12701V6.70914C16.1391 6.70914 16.0872 6.99443 15.9316 7.07224C15.9316 7.07224 15.8797 7.22786 16.0353 7.2538L16.5022 7.22786C16.5022 7.22786 16.6837 7.2538 16.6837 7.12412C16.6837 7.12412 16.554 6.9685 16.5281 6.89069C16.5281 6.89069 16.5022 5.36044 16.5281 5.20482L16.58 4.99733C16.58 4.99733 16.7615 4.89358 16.6578 4.73797C16.6578 4.73797 16.554 4.68609 16.4244 4.71203L16.2687 4.66016ZM7.24288 4.66016H7.191C7.191 4.66016 6.64634 4.73797 6.56853 4.68609L6.12761 4.73797C6.12761 4.73797 6.07574 4.89358 6.25729 4.97139C6.25729 4.97139 6.30917 4.99733 6.30917 5.07514L6.28323 6.76101L6.23136 6.89069C6.23136 6.89069 6.07574 7.09818 6.17948 7.12412C6.17948 7.12412 6.02387 7.22786 7.21694 7.22786C7.21694 7.22786 7.65786 7.30567 7.55411 6.73507C7.55411 6.73507 7.50224 6.52758 7.34662 6.83882C7.34662 6.83882 7.29475 7.09818 6.72415 7.02037C6.72415 7.02037 6.59447 6.91662 6.59447 6.78694V6.08666C6.59447 6.08666 6.56853 5.90511 6.85383 5.93104C6.85383 5.93104 7.16507 6.1126 7.21694 6.03479C7.21694 6.03479 7.32069 5.77542 7.21694 5.6198C7.21694 5.6198 7.06132 5.59387 7.06132 5.67168C7.06132 5.67168 6.95758 5.85323 6.69821 5.74948C6.69821 5.74948 6.56853 5.49012 6.64634 5.28263C6.64634 5.28263 6.6204 4.89358 6.87977 4.91952C6.87977 4.91952 7.191 4.97139 7.24288 5.07514C7.24288 5.07514 7.32069 5.25669 7.39849 5.0492L7.32069 4.7639L7.24288 4.66016ZM13.4676 4.66016C13.3898 4.66016 13.312 4.66016 13.312 4.71203C13.312 4.71203 13.2861 4.86765 13.3898 4.86765C13.3898 4.86765 13.5195 5.02327 13.5195 5.10107L13.4936 5.77542L13.5195 6.70914C13.5195 6.70914 13.4936 6.91662 13.3639 6.99443C13.3639 6.99443 13.2601 7.15005 13.3639 7.20193L13.8826 7.2538C13.8826 7.2538 14.0382 7.15005 13.9604 7.02037L13.8048 6.78694L13.8307 6.29415C13.8307 6.29415 13.9345 6.19041 13.9863 6.24228L14.5569 7.15005C14.5569 7.15005 14.8163 7.33161 14.8682 7.15005C14.8682 7.15005 14.8941 7.07224 14.8163 7.02037L14.3495 6.29415L14.3754 6.03479C14.3754 6.03479 14.8682 5.85323 14.8163 5.38638C14.8163 5.38638 14.9201 4.91952 14.2716 4.71203H13.5973C13.5973 4.68609 13.5454 4.68609 13.4676 4.66016ZM3.63771 4.68609C3.40429 4.71203 3.53397 4.86765 3.53397 4.86765L3.74146 5.02327C3.7674 5.10108 4.38987 7.04631 4.38987 7.04631C4.67517 7.30567 4.70111 6.99443 4.70111 6.99443C4.88266 6.6832 5.24577 5.12701 5.24577 5.12701L5.40139 4.81578C5.34952 4.68609 5.01235 4.71203 5.01235 4.71203C4.85673 4.73796 4.96047 4.89359 4.96047 4.89359L5.06422 5.23076L4.75298 6.37196C4.64924 6.63133 4.54549 6.26821 4.54549 6.26821C4.20832 5.28263 4.18238 5.0492 4.18238 5.0492C4.44175 4.86765 4.23425 4.71203 4.23425 4.71203L3.63771 4.68609ZM14.0642 4.89359C14.142 4.89359 14.2457 4.89359 14.2716 4.94546C14.3235 5.0492 14.7385 5.38638 14.3235 5.77542C14.3235 5.77542 14.142 6.11259 13.8307 5.87917C13.8307 5.87917 13.8307 5.38638 13.8048 5.0492L13.8567 4.94546C13.8826 4.91952 13.9863 4.89359 14.0642 4.89359ZM10.4331 13.686C10.3552 13.6601 10.3293 13.8157 10.2774 13.9195C10.2774 13.9195 9.75871 15.9944 9.6809 16.124C9.6809 16.124 9.62903 16.3056 9.44747 16.3575C9.44747 16.3575 9.34373 16.4612 9.49935 16.5131C9.49935 16.5131 9.81058 16.6168 9.88839 16.4872C9.88839 16.4872 9.99214 16.565 9.88839 16.15C9.88839 16.15 9.9662 15.6831 10.1478 15.6831C10.1478 15.6831 10.2515 15.735 10.2774 15.8128C10.3034 15.8906 10.459 15.8128 10.459 15.8128C10.459 15.8128 10.5627 15.6572 10.6405 15.7091C10.6405 15.7091 10.7962 15.9166 10.7962 16.0462C10.7962 16.0462 10.848 16.3575 10.7702 16.4353C10.7702 16.4353 10.6924 16.4872 10.874 16.539C10.874 16.539 11.2371 16.5909 11.3668 16.565C11.3668 16.565 11.6521 16.4872 11.3668 16.3834C11.3668 16.3834 11.2111 16.2537 11.1333 16.0981C11.1333 16.0981 10.848 14.8532 10.5368 14.0232C10.5368 14.0232 10.5109 13.8676 10.4071 13.7898L10.4331 13.686ZM8.09878 13.8676L7.99503 13.8935L7.83941 14.2826V14.4122C7.94316 14.6716 7.99503 14.4382 7.99503 14.4382L8.22846 14.2048L8.41001 14.1788C8.51376 14.2307 8.48782 14.4122 8.48782 14.4122C8.46189 14.4901 8.46189 15.8387 8.46189 15.8387C8.48782 16.124 8.41001 16.2278 8.41001 16.2278C8.17659 16.5131 8.41001 16.5131 8.41001 16.5131C8.51376 16.4872 8.90281 16.539 8.90281 16.539C9.08436 16.565 9.00655 16.3315 9.00655 16.3315C8.90281 16.2797 8.85093 16.0981 8.85093 16.0981L8.87687 15.8387C8.92874 15.6831 8.87687 14.4901 8.87687 14.4901C8.90281 14.1269 9.1103 14.2307 9.1103 14.2307C9.16217 14.4122 9.29185 14.4641 9.29185 14.4641C9.49934 14.4122 9.44747 14.0491 9.44747 14.0491C9.47341 13.8935 9.36966 13.8935 9.36966 13.8935L9.1103 14.0232H8.35814C8.22846 13.9713 8.09878 13.8676 8.09878 13.8676ZM12.8711 13.9713C12.8451 13.9713 12.7673 13.9713 12.6895 14.0491C12.6895 14.0491 12.482 14.1269 12.4302 14.0491C12.4302 14.0491 11.8336 13.9973 11.8077 14.6457C11.8077 14.6457 11.7299 15.0866 12.4042 15.3719C12.4042 15.3719 12.897 15.6053 12.8711 15.9166C12.8711 15.9166 12.7933 16.4612 12.2745 16.2019C12.2745 16.2019 12.0152 16.0722 12.0411 15.9166C12.0411 15.9166 11.9633 15.735 11.8596 15.7609C11.8596 15.7609 11.7558 15.7869 11.8077 16.3315C11.8077 16.3315 11.8077 16.539 12.0411 16.3315L12.1708 16.3575C12.1708 16.3575 12.6117 16.7206 12.9748 16.2797C12.9748 16.2797 13.3639 15.9166 13.0786 15.4756C13.0786 15.4756 12.8711 15.1644 12.508 15.0088C12.508 15.0088 12.1449 14.8532 12.067 14.5679C12.067 14.5679 12.1708 14.0751 12.6117 14.3344C12.6117 14.3344 12.7673 14.516 12.8711 14.5679C12.8711 14.5679 13.0008 14.5679 12.9748 14.2826L12.9489 14.0491C12.9489 14.0491 12.923 13.9713 12.8711 13.9713ZM10.4071 14.6457L10.4849 14.7494C10.4849 14.7494 10.6665 15.2422 10.6665 15.32C10.6665 15.3978 10.6405 15.4756 10.5627 15.4756C10.459 15.4756 10.1996 15.4497 10.1996 15.4497L10.0959 15.2941C10.0959 15.2941 10.1996 14.8532 10.2256 14.7754L10.4071 14.6457Z" fill="#000000"/>
</svg>
