<?xml version="1.0" encoding="UTF-8"?>
<svg version="1.1" xmlns="http://www.w3.org/2000/svg" width="433" height="116">
<path d="M0 0 C142.89 0 285.78 0 433 0 C433 38.28 433 76.56 433 116 C290.11 116 147.22 116 0 116 C0 77.72 0 39.44 0 0 Z " fill="#FBFBFB" transform="translate(0,0)"/>
<path d="M0 0 C2.99879611 1.11066523 4.13065495 2.16908288 6.125 4.75 C11.57309526 11.56428429 20.53496778 15.56483649 29 17 C35.12359023 17.38630125 41.00182434 17.37481291 47 16 C47.65394883 43.32052888 42.16109894 68.80442275 25.76171875 91.19140625 C25.18035156 91.78824219 24.59898438 92.38507813 24 93 C21 93 21 93 18.328125 90.5859375 C17.2952437 89.52222392 16.269545 88.45150283 15.25 87.375 C14.1790044 86.27156965 13.10609838 85.16999021 12.03125 84.0703125 C11.51304688 83.53954102 10.99484375 83.00876953 10.4609375 82.46191406 C7.78843089 79.78762101 4.92382969 77.39222429 2 75 C-1.36152609 76.45299829 -3.50218106 78.29042948 -6.0390625 80.9140625 C-6.78414062 81.67460938 -7.52921875 82.43515625 -8.296875 83.21875 C-9.06515625 84.0128125 -9.8334375 84.806875 -10.625 85.625 C-12.15421728 87.20502184 -13.68784633 88.78078974 -15.2265625 90.3515625 C-15.90283691 91.05104004 -16.57911133 91.75051758 -17.27587891 92.47119141 C-19 94 -19 94 -21 94 C-22.67539948 91.86823028 -24.19376078 89.75562967 -25.6875 87.5 C-26.13303223 86.82799561 -26.57856445 86.15599121 -27.03759766 85.46362305 C-38.17338151 68.16288652 -44.43556633 48.42015738 -44.125 27.875 C-44.11597656 26.72773438 -44.10695312 25.58046875 -44.09765625 24.3984375 C-44.07432538 21.59873252 -44.04159232 18.79948305 -44 16 C-43.40687012 16.03665771 -42.81374023 16.07331543 -42.20263672 16.11108398 C-27.76338959 16.88376675 -17.15487953 16.55353096 -5.6328125 7.046875 C-3.32260181 4.83872181 -1.43208137 2.86416273 0 0 Z " fill="#040302" transform="translate(47,1)"/>
<path d="M0 0 C28.38 0 56.76 0 86 0 C85.27087107 5.83303144 84.44592208 10.35951577 82.375 15.6875 C82.11066162 16.37593994 81.84632324 17.06437988 81.57397461 17.77368164 C77.47556565 28.15559927 72.24089113 37.48259918 65 46 C60.71489278 42.41450213 56.69078739 38.73052956 52.77734375 34.74609375 C49.98380331 32.00167051 47.00260443 29.5123833 44 27 C40.63847391 28.45299829 38.49781894 30.29042948 35.9609375 32.9140625 C35.21585938 33.67460938 34.47078125 34.43515625 33.703125 35.21875 C32.93484375 36.0128125 32.1665625 36.806875 31.375 37.625 C29.84578272 39.20502184 28.31215367 40.78078974 26.7734375 42.3515625 C26.09716309 43.05104004 25.42088867 43.75051758 24.72412109 44.47119141 C23 46 23 46 21 46 C19.32460052 43.86823028 17.80623922 41.75562967 16.3125 39.5 C15.86696777 38.82799561 15.42143555 38.15599121 14.96240234 37.46362305 C8.47359216 27.38250107 0 12.14916912 0 0 Z " fill="#EB6C0B" transform="translate(5,49)"/>
<path d="M0 0 C16.5 0 33 0 50 0 C49.67 0.66 49.34 1.32 49 2 C48.34 1.67 47.68 1.34 47 1 C46.72800781 1.59039062 46.45601562 2.18078125 46.17578125 2.7890625 C42.24390727 10.1825531 34.86152605 14.92800404 27.04980469 17.51953125 C19.73326564 19.23450848 10.15620265 19.38540088 3 17 C3.19640786 31.15491101 3.52330524 44.48410049 8 58 C8.21285645 58.65758301 8.42571289 59.31516602 8.64501953 59.99267578 C14.80310717 78.72669803 25.35044051 95.68559024 40 109 C40.49886719 109.51433594 40.99773438 110.02867188 41.51171875 110.55859375 C43.14434547 112.22652191 43.14434547 112.22652191 46 114 C49.78673743 113.9491946 49.78673743 113.9491946 53 113 C52.34 113.99 51.68 114.98 51 116 C34.17 116 17.34 116 0 116 C0 77.72 0 39.44 0 0 Z " fill="#FDFCFC" transform="translate(0,0)"/>
<path d="M0 0 C2.87417089 1.31220659 5.02396068 2.74257629 7.3203125 4.90625 C7.93358398 5.48084961 8.54685547 6.05544922 9.17871094 6.64746094 C9.82098633 7.25879883 10.46326172 7.87013672 11.125 8.5 C11.78790039 9.12422852 12.45080078 9.74845703 13.13378906 10.39160156 C17.86952225 14.87023241 22.49999784 19.43877329 27.046875 24.109375 C29.05480994 26.16664679 29.05480994 26.16664679 32 28 C31.44011356 32.19914831 30.04944839 34.85996274 27.625 38.3125 C27.01914063 39.19550781 26.41328125 40.07851562 25.7890625 40.98828125 C25.19867188 41.65214844 24.60828125 42.31601563 24 43 C21 43 21 43 18.328125 40.5859375 C17.2952437 39.52222392 16.269545 38.45150283 15.25 37.375 C14.1790044 36.27156965 13.10609838 35.16999021 12.03125 34.0703125 C11.51304688 33.53954102 10.99484375 33.00876953 10.4609375 32.46191406 C7.78843089 29.78762101 4.92382969 27.39222429 2 25 C-1.36152609 26.45299829 -3.50218106 28.29042948 -6.0390625 30.9140625 C-6.78414062 31.67460938 -7.52921875 32.43515625 -8.296875 33.21875 C-9.06515625 34.0128125 -9.8334375 34.806875 -10.625 35.625 C-12.15421728 37.20502184 -13.68784633 38.78078974 -15.2265625 40.3515625 C-15.90283691 41.05104004 -16.57911133 41.75051758 -17.27587891 42.47119141 C-19 44 -19 44 -21 44 C-22.62946228 41.69404616 -24.1435897 39.39803293 -25.625 37 C-26.04523437 36.33226562 -26.46546875 35.66453125 -26.8984375 34.9765625 C-27.93864592 33.32168546 -28.97014051 31.66133712 -30 30 C-25.52783965 24.57406138 -20.72570259 19.76603316 -15.5625 15 C-10.27497066 10.09317277 -5.06043593 5.14178051 0 0 Z " fill="#030101" transform="translate(47,51)"/>
<path d="M0 0 C4.12275156 2.06137578 7.05580735 4.57862486 10.375 7.6875 C10.92671875 8.19216797 11.4784375 8.69683594 12.046875 9.21679688 C16.01200224 12.8980359 19.55926357 16.8270761 23 21 C20.23326554 23.79575459 17.46092348 26.58588212 14.6875 29.375 C13.90181641 30.1690625 13.11613281 30.963125 12.30664062 31.78125 C11.54931641 32.54179688 10.79199219 33.30234375 10.01171875 34.0859375 C9.31522217 34.7876709 8.61872559 35.4894043 7.90112305 36.21240234 C3.86354999 40.00887209 3.86354999 40.00887209 0.71875 39.9765625 C-3.1479991 38.587644 -5.56444006 36.18796115 -8.5 33.375 C-9.33337891 32.61123047 -9.33337891 32.61123047 -10.18359375 31.83203125 C-14.17484607 28.08494966 -16.66507741 24.66889163 -20 20 C-13.4 13.4 -6.8 6.8 0 0 Z " fill="#EB6D0C" transform="translate(47,75)"/>
<path d="M0 0 C0 0.66 0 1.32 0 2 C0.66 2 1.32 2 2 2 C2 2.66 2 3.32 2 4 C2.99 4 3.98 4 5 4 C5 5.32 5 6.64 5 8 C4.34 8 3.68 8 3 8 C3 9.98 3 11.96 3 14 C3.66 14 4.32 14 5 14 C5 15.32 5 16.64 5 18 C4.34 18 3.68 18 3 18 C3 19.32 3 20.64 3 22 C0.0668642 22.97771193 -1.88178994 23.13419011 -4.9375 23.125 C-6.21947266 23.12886719 -6.21947266 23.12886719 -7.52734375 23.1328125 C-9.82680852 23.00930254 -11.79640348 22.64420687 -14 22 C-14 22.66 -14 23.32 -14 24 C-15.65 24 -17.3 24 -19 24 C-19 23.34 -19 22.68 -19 22 C-19.81597656 22.24363281 -19.81597656 22.24363281 -20.6484375 22.4921875 C-23.36250815 23.07828249 -25.84962013 23.13248081 -28.625 23.125 C-30.06746094 23.12886719 -30.06746094 23.12886719 -31.5390625 23.1328125 C-34 23 -34 23 -36 22 C-36 20.68 -36 19.36 -36 18 C-36.66 18 -37.32 18 -38 18 C-38 16.68 -38 15.36 -38 14 C-37.34 14 -36.68 14 -36 14 C-36 12.02 -36 10.04 -36 8 C-36.66 8 -37.32 8 -38 8 C-38 6.68 -38 5.36 -38 4 C-37.34 4 -36.68 4 -36 4 C-36 3.34 -36 2.68 -36 2 C-35.01 2 -34.02 2 -33 2 C-33 1.34 -33 0.68 -33 0 C-21.90356531 -1.37477952 -11.10498396 -1.22417146 0 0 Z " fill="#B1B1B1" transform="translate(65,22)"/>
<path d="M0 0 C3.99181475 2.35376877 7.14459429 4.57634917 8.73828125 9.05859375 C9.44532976 15.07860677 9.18211737 19.89283957 5.73828125 25.05859375 C2.8258519 28.67402328 0.24537257 29.99810168 -4.26171875 31.05859375 C-9.73025062 31.55573301 -13.440108 30.69683359 -18.26171875 28.05859375 C-22.98662416 22.96066949 -23.61402873 19.61542275 -23.54296875 12.8203125 C-23.02091549 7.69403956 -20.3860834 5.07326429 -16.69921875 1.74609375 C-11.73649777 -1.68963616 -5.60078385 -2.33124164 0 0 Z " fill="#0D0D0D" transform="translate(379.26171875,18.94140625)"/>
<path d="M0 0 C4.0830942 -0.11614929 8.16576377 -0.18723457 12.25 -0.25 C13.40886719 -0.28351562 14.56773437 -0.31703125 15.76171875 -0.3515625 C16.87675781 -0.36445313 17.99179688 -0.37734375 19.140625 -0.390625 C20.16704102 -0.41157227 21.19345703 -0.43251953 22.25097656 -0.45410156 C25.72645641 0.12000079 26.87941576 1.23862782 29 4 C29.50007245 7.4290682 29.44133059 9.24343328 27.6875 12.25 C26 14 26 14 23 16 C24.1446875 17.0209375 24.1446875 17.0209375 25.3125 18.0625 C27.59294454 20.55507891 28.46423371 21.72040755 29.625 24.6875 C30.73301746 28.22343362 30.73301746 28.22343362 34 30 C30.04 30 26.08 30 22 30 C21.5875 28.4325 21.175 26.865 20.75 25.25 C19.5377107 21.20712955 18.53511503 18.54086393 15 16 C14.01 15.67 13.02 15.34 12 15 C12.06010418 16.93835966 12.14891717 18.87584491 12.25 20.8125 C12.29640625 21.89144531 12.3428125 22.97039063 12.390625 24.08203125 C12.77289843 27.51764323 12.77289843 27.51764323 17 30 C11.72 30 6.44 30 1 30 C1.99 29.01 2.98 28.02 4 27 C4.64257076 23.0304269 4.46324172 19.01570871 4.4375 15 C4.45748047 13.89398438 4.47746094 12.78796875 4.49804688 11.6484375 C4.49740234 10.58882812 4.49675781 9.52921875 4.49609375 8.4375 C4.49887329 6.98150391 4.49887329 6.98150391 4.50170898 5.49609375 C4.22448201 2.83710136 4.22448201 2.83710136 1.96899414 1.16015625 C1.31922607 0.77730469 0.66945801 0.39445312 0 0 Z " fill="#090909" transform="translate(145,19)"/>
<path d="M0 0 C3.37483413 -0.08767555 6.74937215 -0.14061628 10.125 -0.1875 C11.55199219 -0.22520508 11.55199219 -0.22520508 13.0078125 -0.26367188 C18.4185834 -0.32003407 22.37940796 -0.16650796 27 3 C29 6 29 6 28.8125 9.5 C27.74468085 14.09983633 27.74468085 14.09983633 25 16 C21.98509443 17.00496852 19.95818308 17.10335303 16.8125 17.0625 C15.91144531 17.05347656 15.01039062 17.04445313 14.08203125 17.03515625 C13.39496094 17.02355469 12.70789063 17.01195313 12 17 C12.06016203 18.7717719 12.14899328 20.54258679 12.25 22.3125 C12.29640625 23.29863281 12.3428125 24.28476562 12.390625 25.30078125 C12.81456127 28.53616064 12.81456127 28.53616064 17 31 C11.39 31 5.78 31 0 31 C1 29 1 29 4 28 C4 20.08 4 12.16 4 4 C2.68 3.34 1.36 2.68 0 2 C0 1.34 0 0.68 0 0 Z " fill="#202020" transform="translate(111,18)"/>
<path d="M0 0 C2.72943537 -0.05416741 5.45778564 -0.09375225 8.1875 -0.125 C9.34088867 -0.15013672 9.34088867 -0.15013672 10.51757812 -0.17578125 C15.656523 -0.21989236 19.47311232 0.25731884 23.8125 3.25 C25.64200211 5.94610837 25.45351866 7.82536935 25 11 C23.25 13.375 23.25 13.375 21 15 C19.68 15 18.36 15 17 15 C17 15.66 17 16.32 17 17 C17.5775 17.04125 18.155 17.0825 18.75 17.125 C22.19302369 18.46395366 23.19149982 20.86526635 25 24 C25.67966676 25.66140763 26.34938905 27.32700041 27 29 C27.66 29.66 28.32 30.32 29 31 C26.69 31 24.38 31 22 31 C21.82984375 30.40832031 21.6596875 29.81664063 21.484375 29.20703125 C20.02763105 24.45711614 18.76372431 20.44111937 15 17 C13.01150165 16.60378613 11.01041869 16.26330177 9 16 C9.0868276 18.12577907 9.1949951 20.25069581 9.3125 22.375 C9.39951172 24.15003906 9.39951172 24.15003906 9.48828125 25.9609375 C9.65714844 26.96382812 9.82601563 27.96671875 10 29 C10.99 29.66 11.98 30.32 13 31 C8.71 31 4.42 31 0 31 C1.32 30.01 2.64 29.02 4 28 C4.55108288 25.39464695 4.55108288 25.39464695 4.390625 22.45703125 C4.37773437 21.38388672 4.36484375 20.31074219 4.3515625 19.20507812 C4.30128906 17.52575195 4.30128906 17.52575195 4.25 15.8125 C4.22292969 14.11577148 4.22292969 14.11577148 4.1953125 12.38476562 C4.14812652 9.58899624 4.08230595 6.79492028 4 4 C2.68 3.34 1.36 2.68 0 2 C0 1.34 0 0.68 0 0 Z " fill="#1B1B1B" transform="translate(280,66)"/>
<path d="M0 0 C4.03363433 3.82133779 4.83125622 6.84851681 5.25 12.1875 C4.91170538 17.34649291 3.90161958 22.610923 0.61328125 26.7421875 C-2.12772114 28.87924021 -4.67643705 28.35609603 -8 28 C-11.00846678 26.02893556 -11.84782679 23.32321034 -13 20 C-13.69937641 13.76010913 -13.60470764 8.34030761 -10 3 C-9.5875 2.38125 -9.175 1.7625 -8.75 1.125 C-5.76559156 -0.79354828 -3.43005488 -0.48141121 0 0 Z " fill="#F5F5F5" transform="translate(376,20)"/>
<path d="M0 0 C4.29 0 8.58 0 13 0 C13 0.66 13 1.32 13 2 C11.02 2.99 11.02 2.99 9 4 C8.67 13.24 8.34 22.48 8 32 C4.64649166 30.32324583 3.31070611 29.54402523 0.94140625 26.953125 C0.11479492 26.0559375 0.11479492 26.0559375 -0.72851562 25.140625 C-1.29248047 24.51671875 -1.85644531 23.8928125 -2.4375 23.25 C-2.99759766 22.6415625 -3.55769531 22.033125 -4.13476562 21.40625 C-7.53576665 17.6917378 -10.80544539 13.89317683 -14 10 C-14.13487595 12.77245014 -14.23400807 15.53837088 -14.3125 18.3125 C-14.35439453 19.09818359 -14.39628906 19.88386719 -14.43945312 20.69335938 C-14.48646791 22.90305435 -14.48460029 24.84195161 -14 27 C-11.6230839 29.05363519 -11.6230839 29.05363519 -9 30 C-9 30.33 -9 30.66 -9 31 C-13.29 31 -17.58 31 -22 31 C-21 29 -21 29 -18 28 C-17.88377061 24.25026094 -17.8127405 20.50098536 -17.75 16.75 C-17.71648437 15.68652344 -17.68296875 14.62304688 -17.6484375 13.52734375 C-17.63554687 12.50253906 -17.62265625 11.47773438 -17.609375 10.421875 C-17.58842773 9.47924805 -17.56748047 8.53662109 -17.54589844 7.56542969 C-18.12728269 4.28092125 -19.49259159 3.10830534 -22 1 C-17.57735662 0.36277231 -13.652191 -0.09057812 -9.80078125 2.45166016 C-7.72562795 4.47941924 -5.85369302 6.58077642 -4 8.8125 C-3.34644531 9.55048828 -2.69289062 10.28847656 -2.01953125 11.04882812 C0.52310805 13.9453399 2.85982375 16.78973562 5 20 C5 14.39 5 8.78 5 3 C2.525 2.505 2.525 2.505 0 2 C0 1.34 0 0.68 0 0 Z " fill="#050505" transform="translate(230,18)"/>
<path d="M0 0 C4.62 0 9.24 0 14 0 C14 0.66 14 1.32 14 2 C12.78437378 2.61258667 12.78437378 2.61258667 11.54418945 3.23754883 C8.72083554 4.77249846 8.72083554 4.77249846 8.34057617 7.8190918 C8.32486572 8.93453369 8.30915527 10.04997559 8.29296875 11.19921875 C8.24946289 13.01196289 8.24946289 13.01196289 8.20507812 14.86132812 C8.19927734 16.12396484 8.19347656 17.38660156 8.1875 18.6875 C8.16236328 19.96173828 8.13722656 21.23597656 8.11132812 22.54882812 C8.05232624 25.69952858 8.01614034 28.84883548 8 32 C4.3974524 30.3224168 2.37319538 28.45228749 -0.25 25.4375 C-1.41595703 24.10525391 -1.41595703 24.10525391 -2.60546875 22.74609375 C-3.39566406 21.83988281 -4.18585938 20.93367188 -5 20 C-5.77988281 19.14535156 -6.55976563 18.29070313 -7.36328125 17.41015625 C-8.08902344 16.61480469 -8.81476563 15.81945312 -9.5625 15 C-10.22378906 14.278125 -10.88507813 13.55625 -11.56640625 12.8125 C-13 11 -13 11 -13 9 C-13.66 9 -14.32 9 -15 9 C-14.96695791 11.91971883 -14.89977677 14.8318228 -14.8125 17.75 C-14.80669922 18.575 -14.80089844 19.4 -14.79492188 20.25 C-14.6364603 25.49058572 -14.6364603 25.49058572 -11.44921875 29.578125 C-10.23685547 30.28195313 -10.23685547 30.28195313 -9 31 C-12.96 31 -16.92 31 -21 31 C-20.01 30.01 -19.02 29.02 -18 28 C-17.36025417 24.21834836 -17.53673464 20.39216925 -17.5625 16.5625 C-17.54251953 15.51255859 -17.52253906 14.46261719 -17.50195312 13.38085938 C-17.50259766 12.36958984 -17.50324219 11.35832031 -17.50390625 10.31640625 C-17.50205322 9.39287354 -17.5002002 8.46934082 -17.49829102 7.51782227 C-18.14038455 4.29548132 -19.53520998 3.08766034 -22 1 C-18.48415993 0.32675403 -15.50848184 0.22459201 -12 1 C-8.11335582 3.85900857 -5.11176712 7.33237465 -2 11 C-1.27941406 11.80695312 -0.55882812 12.61390625 0.18359375 13.4453125 C1.81356562 15.27534127 3.41081872 17.13443937 5 19 C5 14.05 5 9.1 5 4 C3.35 3.34 1.7 2.68 0 2 C0 1.34 0 0.68 0 0 Z " fill="#050505" transform="translate(416,18)"/>
<path d="M0 0 C9.24 0 18.48 0 28 0 C28 2.31 28 4.62 28 7 C26.0625 6.1875 26.0625 6.1875 24 5 C23.67 4.01 23.34 3.02 23 2 C17.555 1.505 17.555 1.505 12 1 C12 4.96 12 8.92 12 13 C13.98 12.67 15.96 12.34 18 12 C18.33 10.68 18.66 9.36 19 8 C19.66 8 20.32 8 21 8 C21 11.96 21 15.92 21 20 C20.34 20 19.68 20 19 20 C18.773125 19.360625 18.54625 18.72125 18.3125 18.0625 C17.15808353 15.7227493 17.15808353 15.7227493 14.41796875 15.37109375 C13.62003906 15.24863281 12.82210938 15.12617187 12 15 C12.14084796 16.79206547 12.28783701 18.58364917 12.4375 20.375 C12.51871094 21.37273438 12.59992188 22.37046875 12.68359375 23.3984375 C12.84965626 25.97927613 12.84965626 25.97927613 14 28 C17.39984844 28.35036606 20.61526142 28.54283543 24 28 C26.56680314 25.15269289 26.56680314 25.15269289 28 22 C28.66 22 29.32 22 30 22 C30 24.64 30 27.28 30 30 C20.1 30 10.2 30 0 30 C1.32 29.01 2.64 28.02 4 27 C4.61513978 24.44873813 4.61513978 24.44873813 4.53125 21.5625 C4.53640625 20.50289062 4.5415625 19.44328125 4.546875 18.3515625 C4.53140625 17.24554688 4.5159375 16.13953125 4.5 15 C4.52320313 13.34097656 4.52320313 13.34097656 4.546875 11.6484375 C4.53914063 10.05902344 4.53914063 10.05902344 4.53125 8.4375 C4.52673828 7.46683594 4.52222656 6.49617188 4.51757812 5.49609375 C4.17069513 2.43894302 4.17069513 2.43894302 0 0 Z " fill="#020202" transform="translate(283,19)"/>
<path d="M0 0 C0.845625 0.33 1.69125 0.66 2.5625 1 C3.2225 1 3.8825 1 4.5625 1 C4.5625 3.97 4.5625 6.94 4.5625 10 C4.15 9.4225 3.7375 8.845 3.3125 8.25 C-0.13627261 3.48881203 -0.13627261 3.48881203 -5.4375 1.5625 C-8.72737634 2.04227363 -10.10512823 2.66762823 -12.4375 5 C-13.53861689 8.30335066 -13.63976528 10.89832137 -13.6875 14.375 C-13.71328125 15.49648438 -13.7390625 16.61796875 -13.765625 17.7734375 C-13.37604948 21.60426347 -12.17940767 24.25809233 -9.4375 27 C-7.40479438 27.23820921 -7.40479438 27.23820921 -5.0625 27.25 C-4.27101563 27.27578125 -3.47953125 27.3015625 -2.6640625 27.328125 C0.03274878 26.93070018 0.86979015 26.07493465 2.5625 24 C3.5525 24.33 4.5425 24.66 5.5625 25 C2.51255545 28.51916679 0.1435733 30.0668184 -4.4375 31 C-9.43252548 31.14643397 -13.88848668 30.89592456 -17.9375 27.75 C-22.36992606 22.87433134 -22.85147975 18.86235279 -22.6796875 12.4296875 C-22.17656789 7.38226175 -20.12170328 4.29786306 -16.3125 1.125 C-11.0610783 -2.32783753 -5.81576637 -1.69185931 0 0 Z " fill="#0D0D0D" transform="translate(271.4375,19)"/>
<path d="M0 0 C10.23 0 20.46 0 31 0 C31 2.97 31 5.94 31 9 C29.33281258 7.33281258 27.68494441 5.642937 26.125 3.875 C23.82591247 1.53036015 23.82591247 1.53036015 19 1 C19.33 9.91 19.66 18.82 20 28 C21.32 28.66 22.64 29.32 24 30 C18.39 30 12.78 30 7 30 C10 28 10 28 12 28 C12 19.09 12 10.18 12 1 C5.17821292 2.14759447 5.17821292 2.14759447 3.1875 5.625 C2.795625 6.40875 2.40375 7.1925 2 8 C1.34 8 0.68 8 0 8 C0 5.36 0 2.72 0 0 Z " fill="#010101" transform="translate(319,19)"/>
<path d="M0 0 C4.67964759 0.17931901 9.33128895 0.62145586 14 1 C14 7.6 14 14.2 14 21 C9.05 21 4.1 21 -1 21 C-1.02683436 17.68744674 -1.0467578 14.37510817 -1.0625 11.0625 C-1.07087891 10.11697266 -1.07925781 9.17144531 -1.08789062 8.19726562 C-1.09111328 7.29814453 -1.09433594 6.39902344 -1.09765625 5.47265625 C-1.10289307 4.64000244 -1.10812988 3.80734863 -1.11352539 2.94946289 C-1 1 -1 1 0 0 Z " fill="#FCFCFC" transform="translate(50,21)"/>
<path d="M0 0 C0 6.6 0 13.2 0 20 C-4.95 20 -9.9 20 -15 20 C-15 13.73 -15 7.46 -15 1 C-6 -1 -6 -1 0 0 Z " fill="#E9E9E9" transform="translate(48,22)"/>
<path d="M0 0 C3.96 0 7.92 0 12 0 C10.68 1.32 9.36 2.64 8 4 C7.36085024 6.98687874 7.36085024 6.98687874 7.390625 10.296875 C7.35839844 11.50214844 7.32617188 12.70742187 7.29296875 13.94921875 C7.27169922 15.83060547 7.27169922 15.83060547 7.25 17.75 C7.20552734 19.65458984 7.20552734 19.65458984 7.16015625 21.59765625 C7.08946049 24.73183485 7.03675988 27.86526956 7 31 C6.34 31 5.68 31 5 31 C3.60674046 29.44759659 2.28619872 27.82970015 1 26.1875 C-3.16006201 20.96543842 -7.55054302 16.07195055 -12.12890625 11.21484375 C-14 9 -14 9 -14 7 C-14.66 7 -15.32 7 -16 7 C-15.85924795 9.93782469 -15.7126162 12.87515171 -15.5625 15.8125 C-15.52318359 16.64587891 -15.48386719 17.47925781 -15.44335938 18.33789062 C-15.40146484 19.14033203 -15.35957031 19.94277344 -15.31640625 20.76953125 C-15.27974854 21.50792236 -15.24309082 22.24631348 -15.20532227 23.00708008 C-15.05157859 25.207495 -15.05157859 25.207495 -14 28 C-12.68 28.99 -11.36 29.98 -10 31 C-13.96 31 -17.92 31 -22 31 C-20.68 30.01 -19.36 29.02 -18 28 C-17.41690722 25.44649255 -17.41690722 25.44649255 -17.5390625 22.5625 C-17.54292969 21.50289062 -17.54679688 20.44328125 -17.55078125 19.3515625 C-17.57527344 18.24554688 -17.59976563 17.13953125 -17.625 16 C-17.62693359 14.34097656 -17.62693359 14.34097656 -17.62890625 12.6484375 C-17.50854685 6.46720193 -17.50854685 6.46720193 -20 1 C-17.26953125 0.6953125 -17.26953125 0.6953125 -14 1 C-11.76171875 3.0546875 -11.76171875 3.0546875 -9.6875 5.875 C-5.37771398 11.52609698 -0.79210864 16.75150006 4 22 C4 15.73 4 9.46 4 3 C2.68 2.34 1.36 1.68 0 1 C0 0.67 0 0.34 0 0 Z " fill="#0B0B0B" transform="translate(172,66)"/>
<path d="M0 0 C4.29 0 8.58 0 13 0 C13 0.66 13 1.32 13 2 C11.68 2.33 10.36 2.66 9 3 C8.91271118 6.24983 8.85951342 9.4993575 8.8125 12.75 C8.78736328 13.67039062 8.76222656 14.59078125 8.73632812 15.5390625 C8.72666016 16.42851563 8.71699219 17.31796875 8.70703125 18.234375 C8.6913208 19.05131836 8.67561035 19.86826172 8.65942383 20.70996094 C9.08243465 23.5542918 10.06431389 24.90534874 12 27 C14.9702527 28.00102439 17.87681286 28.15248834 21 28 C23.5404226 26.93190172 23.5404226 26.93190172 25 25 C26.28923485 21.13229545 26.14505706 17.46562684 26.125 13.4375 C26.12886719 12.65697266 26.13273437 11.87644531 26.13671875 11.07226562 C26.23483265 6.90330125 26.23483265 6.90330125 25 3 C22.97536745 2.34786708 22.97536745 2.34786708 21 2 C21 1.34 21 0.68 21 0 C24.96 0 28.92 0 33 0 C33 0.66 33 1.32 33 2 C32.01 2.33 31.02 2.66 30 3 C29.96261719 4.30195312 29.92523438 5.60390625 29.88671875 6.9453125 C29.82103326 8.67190257 29.75458682 10.39846381 29.6875 12.125 C29.66494141 12.9809375 29.64238281 13.836875 29.61914062 14.71875 C29.36413099 20.74625048 28.6110653 25.55212628 24 29.875 C19.35209268 31.61796524 14.89244606 31.80806166 10 31 C7.10316132 28.7984026 5.60702769 27.21405538 4 24 C3.84824451 22.40737934 3.75099675 20.80935144 3.68359375 19.2109375 C3.64169922 18.26992187 3.59980469 17.32890625 3.55664062 16.359375 C3.51732422 15.37453125 3.47800781 14.3896875 3.4375 13.375 C3.39431641 12.38242188 3.35113281 11.38984375 3.30664062 10.3671875 C3.20038931 7.91160162 3.09835036 5.45591297 3 3 C2.01 2.67 1.02 2.34 0 2 C0 1.34 0 0.68 0 0 Z " fill="#181818" transform="translate(111,66)"/>
<path d="M0 0 C3.97915159 -0.02886984 7.95827653 -0.04675406 11.9375 -0.0625 C13.07380859 -0.07087891 14.21011719 -0.07925781 15.38085938 -0.08789062 C16.46044922 -0.09111328 17.54003906 -0.09433594 18.65234375 -0.09765625 C20.15269165 -0.10551147 20.15269165 -0.10551147 21.68334961 -0.11352539 C24 0 24 0 25 1 C25.04092937 3.33297433 25.04241723 5.66705225 25 8 C24.4225 7.195625 23.845 6.39125 23.25 5.5625 C19.21962553 1.40287154 13.4250257 2.178847 8 2 C8 5.96 8 9.92 8 14 C11.48809191 13.22969878 11.48809191 13.22969878 15 12 C15.33 11.01 15.66 10.02 16 9 C16.66 9 17.32 9 18 9 C18 12.96 18 16.92 18 21 C17.34 21 16.68 21 16 21 C15.79375 20.195625 15.5875 19.39125 15.375 18.5625 C14.92125 17.716875 14.4675 16.87125 14 16 C10.94727535 15.10169161 10.94727535 15.10169161 8 15 C8.14076315 16.9587043 8.2877676 18.91696093 8.4375 20.875 C8.55931641 22.51082031 8.55931641 22.51082031 8.68359375 24.1796875 C8.83001703 26.94728971 8.83001703 26.94728971 10 29 C17.21498031 29.99105718 17.21498031 29.99105718 23.65234375 27.6640625 C24.84485458 25.83582937 24.84485458 25.83582937 26 23 C26.33 23 26.66 23 27 23 C27 25.64 27 28.28 27 31 C18.09 31 9.18 31 0 31 C0.99 30.34 1.98 29.68 3 29 C4.0394775 25.8815675 4.11494838 23.72524414 4.09765625 20.45703125 C4.09443359 19.38388672 4.09121094 18.31074219 4.08789062 17.20507812 C4.07951172 16.08552734 4.07113281 14.96597656 4.0625 13.8125 C4.05573242 12.11577148 4.05573242 12.11577148 4.04882812 10.38476562 C4.03703498 7.58979073 4.0205765 4.7949218 4 2 C2.68 2 1.36 2 0 2 C0 1.34 0 0.68 0 0 Z " fill="#0F0F0F" transform="translate(246,66)"/>
<path d="M0 0 C6.27 0 12.54 0 19 0 C18.67 0.66 18.34 1.32 18 2 C15.03 1.505 15.03 1.505 12 1 C12 5.29 12 9.58 12 14 C13.32 14.33 14.64 14.66 16 15 C14.68 15 13.36 15 12 15 C12.06010418 16.93835966 12.14891717 18.87584491 12.25 20.8125 C12.29640625 21.89144531 12.3428125 22.97039063 12.390625 24.08203125 C12.77289843 27.51764323 12.77289843 27.51764323 17 30 C11.72 30 6.44 30 1 30 C1.99 29.01 2.98 28.02 4 27 C4.64257076 23.0304269 4.46324172 19.01570871 4.4375 15 C4.45748047 13.89398438 4.47746094 12.78796875 4.49804688 11.6484375 C4.49740234 10.58882812 4.49675781 9.52921875 4.49609375 8.4375 C4.49887329 6.98150391 4.49887329 6.98150391 4.50170898 5.49609375 C4.175255 2.43760813 4.175255 2.43760813 0 0 Z " fill="#010101" transform="translate(145,19)"/>
<path d="M0 0 C4.29 0 8.58 0 13 0 C12.01 0.495 12.01 0.495 11 1 C11 5.29 11 9.58 11 14 C12.98 14 14.96 14 17 14 C17 14.33 17 14.66 17 15 C15.02 15 13.04 15 11 15 C11.06010418 16.93835966 11.14891717 18.87584491 11.25 20.8125 C11.29640625 21.89144531 11.3428125 22.97039063 11.390625 24.08203125 C11.77289843 27.51764323 11.77289843 27.51764323 16 30 C10.39 30 4.78 30 -1 30 C0 28 0 28 3 27 C3.08696177 23.06263877 3.14037835 19.12552372 3.1875 15.1875 C3.21263672 14.06794922 3.23777344 12.94839844 3.26367188 11.79492188 C3.27333984 10.72177734 3.28300781 9.64863281 3.29296875 8.54296875 C3.3086792 7.55321045 3.32438965 6.56345215 3.34057617 5.54370117 C3.20861593 2.60160036 3.20861593 2.60160036 0 0 Z " fill="#030303" transform="translate(112,19)"/>
<path d="M0 0 C1.25159912 0.00523682 2.50319824 0.01047363 3.79272461 0.01586914 C4.78942421 0.01799156 4.78942421 0.01799156 5.80625916 0.02015686 C7.93590735 0.02577021 10.06545175 0.03832485 12.19506836 0.05102539 C13.63582205 0.05603868 15.07657739 0.06060188 16.51733398 0.06469727 C20.05577938 0.07574394 23.59416375 0.09301747 27.13256836 0.11352539 C27.13256836 3.41352539 27.13256836 6.71352539 27.13256836 10.11352539 C26.47256836 10.11352539 25.81256836 10.11352539 25.13256836 10.11352539 C24.47256836 7.80352539 23.81256836 5.49352539 23.13256836 3.11352539 C20.16256836 2.78352539 17.19256836 2.45352539 14.13256836 2.11352539 C14.46256836 11.02352539 14.79256836 19.93352539 15.13256836 29.11352539 C16.45256836 29.77352539 17.77256836 30.43352539 19.13256836 31.11352539 C14.18256836 31.11352539 9.23256836 31.11352539 4.13256836 31.11352539 C8.13256836 29.11352539 8.13256836 29.11352539 10.13256836 29.11352539 C10.13256836 20.20352539 10.13256836 11.29352539 10.13256836 2.11352539 C6.83256836 2.44352539 3.53256836 2.77352539 0.13256836 3.11352539 C-0.52743164 5.09352539 -1.18743164 7.07352539 -1.86743164 9.11352539 C-2.52743164 9.11352539 -3.18743164 9.11352539 -3.86743164 9.11352539 C-3.96508789 2.96118164 -3.96508789 2.96118164 -3.86743164 1.11352539 C-2.86743164 0.11352539 -2.86743164 0.11352539 0 0 Z " fill="#191919" transform="translate(368.867431640625,65.886474609375)"/>
<path d="M0 0 C5.28 0 10.56 0 16 0 C14.02 0.99 14.02 0.99 12 2 C12.0517332 6.10520809 12.14677764 10.20828913 12.25 14.3125 C12.26417969 15.47974609 12.27835938 16.64699219 12.29296875 17.84960938 C12.32519531 18.96787109 12.35742188 20.08613281 12.390625 21.23828125 C12.41157227 22.26993408 12.43251953 23.30158691 12.45410156 24.36450195 C12.81016416 27.54686795 12.81016416 27.54686795 17 30 C11.39 30 5.78 30 0 30 C1.32 29.01 2.64 28.02 4 27 C4.61513978 24.44873813 4.61513978 24.44873813 4.53125 21.5625 C4.53640625 20.50289062 4.5415625 19.44328125 4.546875 18.3515625 C4.53140625 17.24554688 4.5159375 16.13953125 4.5 15 C4.52320313 13.34097656 4.52320313 13.34097656 4.546875 11.6484375 C4.53914062 10.05902344 4.53914062 10.05902344 4.53125 8.4375 C4.52673828 7.46683594 4.52222656 6.49617188 4.51757812 5.49609375 C4.17069513 2.43894302 4.17069513 2.43894302 0 0 Z " fill="#000000" transform="translate(184,19)"/>
<path d="M0 0 C1.6744239 0.6469365 3.34302621 1.30959426 5 2 C5.66 1.67 6.32 1.34 7 1 C7 3.64 7 6.28 7 9 C5 7 3 5 1 3 C-2.45821402 2.74996036 -2.45821402 2.74996036 -6 3 C-6.66 3.66 -7.32 4.32 -8 5 C-8.13064468 7.53790548 -8.13064468 7.53790548 -7 10 C-4.41815475 11.52223554 -4.41815475 11.52223554 -1.25 12.5 C7.28413201 15.77531646 7.28413201 15.77531646 10 20 C10.06798064 23.87489634 9.56722935 26.10188686 7.5 29.375 C3.92620302 31.69796804 0.24321942 32.23443201 -4 32 C-4.99 31.34 -5.98 30.68 -7 30 C-9.62531524 29.83286431 -9.62531524 29.83286431 -12 30 C-12 27.36 -12 24.72 -12 22 C-11.34 22 -10.68 22 -10 22 C-9.731875 22.969375 -9.46375 23.93875 -9.1875 24.9375 C-8.795625 25.948125 -8.40375 26.95875 -8 28 C-4.07703567 29.30765478 -1.13997567 29.1971417 3 29 C5.34973818 27.10244856 5.34973818 27.10244856 5.125 23.875 C5.08375 22.92625 5.0425 21.9775 5 21 C4.19175781 20.69707031 3.38351562 20.39414063 2.55078125 20.08203125 C-8.85001406 15.61247941 -8.85001406 15.61247941 -12 11 C-12.6875 8 -12.6875 8 -12 5 C-8.21815462 0.85797887 -5.61668651 -0.83652778 0 0 Z " fill="#121212" transform="translate(329,66)"/>
<path d="M0 0 C4.29 0 8.58 0 13 0 C13 0.66 13 1.32 13 2 C12.01 2 11.02 2 10 2 C10.59348861 3.77444057 11.20022001 5.54445553 11.8125 7.3125 C12.14894531 8.29863281 12.48539062 9.28476563 12.83203125 10.30078125 C13.94430967 12.87129759 14.88208191 14.22191977 17 16 C17.84324672 14.421924 18.67423918 12.8372958 19.5 11.25 C19.9640625 10.36828125 20.428125 9.4865625 20.90625 8.578125 C22.26036656 5.85303528 22.26036656 5.85303528 22 2 C21.01 1.34 20.02 0.68 19 0 C22.63 0 26.26 0 30 0 C29.113125 0.94875 28.22625 1.8975 27.3125 2.875 C20.33084151 11.15017241 18.16501709 18.2008877 19 29 C20.32 29.66 21.64 30.32 23 31 C18.38 31 13.76 31 9 31 C10.32 30.01 11.64 29.02 13 28 C14.05140621 21.67563235 11.57381318 17.08673271 8.75 11.625 C8.35425781 10.80644531 7.95851563 9.98789063 7.55078125 9.14453125 C7.15761719 8.36722656 6.76445312 7.58992188 6.359375 6.7890625 C6.00327148 6.08475098 5.64716797 5.38043945 5.28027344 4.65478516 C3.6831054 2.59040588 2.53494497 2.36013056 0 2 C0 1.34 0 0.68 0 0 Z " fill="#141414" transform="translate(400,66)"/>
<path d="M0 0 C5.2688427 0.41324256 8.22944438 1.22944438 12 5 C14.73126953 9.47890003 14.52439739 13.90124385 14 19 C12.44124701 23.20863308 10.51156023 26.19075181 7 29 C2.87963683 30.79146225 -0.52907017 31.21290142 -5 31 C-2.35122304 29.58101234 0.08014819 28.68088981 3 28 C5.79862046 18.78787431 7.65760841 11.97020878 3 3 C1.46048953 1.11970761 1.46048953 1.11970761 0 0 Z " fill="#070707" transform="translate(374,19)"/>
<path d="M0 0 C4.62 0 9.24 0 14 0 C14 0.66 14 1.32 14 2 C12.68 2.33 11.36 2.66 10 3 C10 11.91 10 20.82 10 30 C11.32 30.33 12.64 30.66 14 31 C9.38 31 4.76 31 0 31 C1.32 30.01 2.64 29.02 4 28 C4.55164013 25.29655589 4.55164013 25.29655589 4.390625 22.23828125 C4.37773437 21.12001953 4.36484375 20.00175781 4.3515625 18.84960938 C4.30128906 17.09874023 4.30128906 17.09874023 4.25 15.3125 C4.23195313 14.13365234 4.21390625 12.95480469 4.1953125 11.74023438 C4.14811859 8.82601074 4.08229077 5.91340969 4 3 C2.68 2.67 1.36 2.34 0 2 C0 1.34 0 0.68 0 0 Z " fill="#141414" transform="translate(346,66)"/>
<path d="M0 0 C4.62 0 9.24 0 14 0 C12.68 0.99 11.36 1.98 10 3 C9.43291654 5.57117244 9.43291654 5.57117244 9.57421875 8.47265625 C9.58259766 9.53677734 9.59097656 10.60089844 9.59960938 11.69726562 C9.62861328 12.80779297 9.65761719 13.91832031 9.6875 15.0625 C9.70200195 16.7340918 9.70200195 16.7340918 9.71679688 18.43945312 C9.55412815 23.89150641 9.55412815 23.89150641 11 29 C11.99 29.66 12.98 30.32 14 31 C9.38 31 4.76 31 0 31 C1.32 30.01 2.64 29.02 4 28 C4.55164013 25.29655589 4.55164013 25.29655589 4.390625 22.23828125 C4.37773437 21.12001953 4.36484375 20.00175781 4.3515625 18.84960938 C4.30128906 17.09874023 4.30128906 17.09874023 4.25 15.3125 C4.23195312 14.13365234 4.21390625 12.95480469 4.1953125 11.74023438 C4.14811859 8.82601074 4.08229077 5.91340969 4 3 C2.68 2.67 1.36 2.34 0 2 C0 1.34 0 0.68 0 0 Z " fill="#121212" transform="translate(190,66)"/>
<path d="M0 0 C4.29 0 8.58 0 13 0 C12.01 0.66 11.02 1.32 10 2 C10.698103 6.50276432 12.28675476 10.55578171 14 14.75 C14.27328125 15.43449219 14.5465625 16.11898437 14.828125 16.82421875 C16.00657094 20.15900063 16.00657094 20.15900063 18 23 C18.66 22.34 19.32 21.68 20 21 C19.39009109 24.55780196 18.4216319 27.6828589 17 31 C16.34 31 15.68 31 15 31 C14.77860352 30.43603516 14.55720703 29.87207031 14.32910156 29.29101562 C13.30651052 26.69250644 12.2782931 24.09625775 11.25 21.5 C10.90195313 20.613125 10.55390625 19.72625 10.1953125 18.8125 C8.04428816 13.39510537 5.86707391 8.08148058 3 3 C2.01 2.67 1.02 2.34 0 2 C0 1.34 0 0.68 0 0 Z " fill="#121212" transform="translate(209,66)"/>
<path d="M0 0 C1.423125 -0.061875 2.84625 -0.12375 4.3125 -0.1875 C5.51326172 -0.23970703 5.51326172 -0.23970703 6.73828125 -0.29296875 C9 0 9 0 10.796875 1.29296875 C12 3 12 3 11.9375 6.5 C11 10 11 10 9.375 11.9375 C6.16962495 13.37148358 3.46772635 13.20006114 0 13 C0 8.71 0 4.42 0 0 Z " fill="#F2F2F2" transform="translate(289,68)"/>
<path d="M0 0 C3.22939919 -0.35882213 4.61209763 -0.27258004 7.3125 1.625 C9.50197249 4.7064798 9.61793165 6.29241009 9 10 C7.25 12.375 7.25 12.375 5 14 C3.68 14 2.36 14 1 14 C1 14.66 1 15.32 1 16 C1.5775 16.04125 2.155 16.0825 2.75 16.125 C6.19302369 17.46395366 7.19149982 19.86526635 9 23 C9.67966676 24.66140763 10.34938905 26.32700041 11 28 C11.66 28.66 12.32 29.32 13 30 C10.69 30 8.38 30 6 30 C5.81824219 29.39671875 5.63648438 28.7934375 5.44921875 28.171875 C4.0881357 23.84432889 2.80078442 20.60100854 0 17 C0 15.68 0 14.36 0 13 C0.66 12.360625 1.32 11.72125 2 11.0625 C4.20189942 9.16447937 4.20189942 9.16447937 4.5 6.5 C3.85643482 3.28217411 2.46694247 2.08148271 0 0 Z " fill="#0C0C0C" transform="translate(296,67)"/>
<path d="M0 0 C0.33 0 0.66 0 1 0 C1 4.62 1 9.24 1 14 C-0.98 14 -2.96 14 -5 14 C-5 13.34 -5 12.68 -5 12 C-6.65 12 -8.3 12 -10 12 C-11.125 6.25 -11.125 6.25 -10 4 C-10.66 3.67 -11.32 3.34 -12 3 C-10.82630859 2.80083984 -10.82630859 2.80083984 -9.62890625 2.59765625 C-8.61699219 2.42105469 -7.60507812 2.24445312 -6.5625 2.0625 C-5.55316406 1.88847656 -4.54382812 1.71445312 -3.50390625 1.53515625 C-1.0712562 1.25248903 -1.0712562 1.25248903 0 0 Z " fill="#F8F8F8" transform="translate(46,27)"/>
<path d="M0 0 C0.33 0.66 0.66 1.32 1 2 C1.66 2 2.32 2 3 2 C3 2.66 3 3.32 3 4 C3.99 4 4.98 4 6 4 C6 5.32 6 6.64 6 8 C5.34 8 4.68 8 4 8 C4 9.98 4 11.96 4 14 C4.66 14 5.32 14 6 14 C6 15.32 6 16.64 6 18 C5.34 18 4.68 18 4 18 C4 19.32 4 20.64 4 22 C1.56152549 21.88602456 -0.87513174 21.75929026 -3.3125 21.625 C-4.34793945 21.57859375 -4.34793945 21.57859375 -5.40429688 21.53125 C-9.06990789 21.31875081 -10.87900792 21.08066139 -14 19 C-7.07 19.495 -7.07 19.495 0 20 C0 13.4 0 6.8 0 0 Z " fill="#B5B5B5" transform="translate(64,22)"/>
<path d="M0 0 C6 0 6 0 9 2 C9.65158371 8.84162896 9.65158371 8.84162896 7.875 12 C6 13 6 13 0 13 C0 8.71 0 4.42 0 0 Z " fill="#EDEDED" transform="translate(157,20)"/>
<path d="M0 0 C6 0 6 0 7.875 1.0625 C9.64273274 4.1069286 9.36823916 6.5631012 9 10 C7.875 11.9375 7.875 11.9375 6 13 C4.02 13 2.04 13 0 13 C0 8.71 0 4.42 0 0 Z " fill="#F5F5F5" transform="translate(123,20)"/>
<path d="M0 0 C1.25159912 0.00523682 2.50319824 0.01047363 3.79272461 0.01586914 C4.78942421 0.01799156 4.78942421 0.01799156 5.80625916 0.02015686 C7.93590735 0.02577021 10.06545175 0.03832485 12.19506836 0.05102539 C13.63582205 0.05603868 15.07657739 0.06060188 16.51733398 0.06469727 C20.05577938 0.07574394 23.59416375 0.09301747 27.13256836 0.11352539 C27.13256836 3.41352539 27.13256836 6.71352539 27.13256836 10.11352539 C26.47256836 10.11352539 25.81256836 10.11352539 25.13256836 10.11352539 C24.47256836 7.80352539 23.81256836 5.49352539 23.13256836 3.11352539 C15.28854502 2.38826007 7.9351198 1.90278465 0.13256836 3.11352539 C-0.52743164 5.09352539 -1.18743164 7.07352539 -1.86743164 9.11352539 C-2.52743164 9.11352539 -3.18743164 9.11352539 -3.86743164 9.11352539 C-3.96508789 2.96118164 -3.96508789 2.96118164 -3.86743164 1.11352539 C-2.86743164 0.11352539 -2.86743164 0.11352539 0 0 Z " fill="#787878" transform="translate(368.867431640625,65.886474609375)"/>
<path d="M0 0 C6.93 0.495 6.93 0.495 14 1 C14 2.65 14 4.3 14 6 C9.80323746 7.65918519 7.36209734 8.09052433 3 7 C2.01 7.495 2.01 7.495 1 8 C-0.0625 6.25 -0.0625 6.25 -1 4 C-0.67 2.68 -0.34 1.36 0 0 Z " fill="#D3D3D3" transform="translate(50,21)"/>
<path d="M0 0 C1.60875 0.2784375 1.60875 0.2784375 3.25 0.5625 C6.46490625 0.9375724 8.0460953 0.9846349 11 0 C11.66 0 12.32 0 13 0 C13 1.32 13 2.64 13 4 C12.01 4.33 11.02 4.66 10 5 C10.99 5 11.98 5 13 5 C13 6.32 13 7.64 13 9 C10.36 9 7.72 9 5 9 C5 8.34 5 7.68 5 7 C4.34 7 3.68 7 3 7 C3 7.66 3 8.32 3 9 C2.34 9 1.68 9 1 9 C0.67 7.68 0.34 6.36 0 5 C0.66 5 1.32 5 2 5 C2 3.68 2 2.36 2 1 C1.34 0.67 0.68 0.34 0 0 Z " fill="#CDCDCD" transform="translate(50,30)"/>
<path d="M0 0 C3.96 0 7.92 0 12 0 C10.68 1.32 9.36 2.64 8 4 C7.36085024 6.98687874 7.36085024 6.98687874 7.390625 10.296875 C7.35839844 11.50214844 7.32617188 12.70742187 7.29296875 13.94921875 C7.27169922 15.83060547 7.27169922 15.83060547 7.25 17.75 C7.22035156 19.01972656 7.19070312 20.28945312 7.16015625 21.59765625 C7.08946049 24.73183485 7.03675988 27.86526956 7 31 C6.34 30.67 5.68 30.34 5 30 C5.020625 29.21625 5.04125 28.4325 5.0625 27.625 C5.18684063 25.01885039 5.18684063 25.01885039 4 23 C3.91627341 21.47851674 3.89269973 19.95344222 3.90234375 18.4296875 C3.90717773 17.08583984 3.90717773 17.08583984 3.91210938 15.71484375 C3.92048828 14.77769531 3.92886719 13.84054688 3.9375 12.875 C3.94201172 11.93011719 3.94652344 10.98523438 3.95117188 10.01171875 C3.96297643 7.67441613 3.97944241 5.33723939 4 3 C2.68 2.34 1.36 1.68 0 1 C0 0.67 0 0.34 0 0 Z " fill="#494949" transform="translate(172,66)"/>
<path d="M0 0 C0.66 0 1.32 0 2 0 C1.67 0.99 1.34 1.98 1 3 C0.67 2.01 0.34 1.02 0 0 Z M-4 0 C-3.67 0.99 -3.34 1.98 -3 3 C-0.98491642 3.73323796 -0.98491642 3.73323796 1 4 C-0.98 4.33 -2.96 4.66 -5 5 C-4.67 7.31 -4.34 9.62 -4 12 C-2.35 12 -0.7 12 1 12 C0.67 13.32 0.34 14.64 0 16 C-2.64 16 -5.28 16 -8 16 C-8 11.05 -8 6.1 -8 1 C-6.68 1.33 -5.36 1.66 -4 2 C-4 1.34 -4 0.68 -4 0 Z " fill="#FAFAFA" transform="translate(41,26)"/>
<path d="M0 0 C2.04258232 3.06387348 2.24021141 3.67850358 2.23828125 7.125 C2.25439453 7.91390625 2.27050781 8.7028125 2.28710938 9.515625 C2.30403566 11.1717967 2.30924477 12.82812961 2.30273438 14.484375 C2.36032574 16.75830514 2.44423244 18.79295602 3 21 C5.39106309 23.07005422 5.39106309 23.07005422 8 24 C8 24.33 8 24.66 8 25 C3.71 25 -0.58 25 -5 25 C-4 23 -4 23 -1 22 C-0.67 14.74 -0.34 7.48 0 0 Z " fill="#1A1A1A" transform="translate(213,24)"/>
<path d="M0 0 C4.29 0 8.58 0 13 0 C13 0.66 13 1.32 13 2 C11.02 2.99 11.02 2.99 9 4 C8.67 13.24 8.34 22.48 8 32 C7.67 32 7.34 32 7 32 C6.97494385 31.22809326 6.9498877 30.45618652 6.92407227 29.66088867 C6.80815993 26.16958819 6.68541176 22.67856078 6.5625 19.1875 C6.52318359 17.97255859 6.48386719 16.75761719 6.44335938 15.50585938 C6.40146484 14.34248047 6.35957031 13.17910156 6.31640625 11.98046875 C6.27974854 10.90692139 6.24309082 9.83337402 6.20532227 8.72729492 C6.10458153 5.90688447 6.10458153 5.90688447 5 3 C3.35 2.67 1.7 2.34 0 2 C0 1.34 0 0.68 0 0 Z " fill="#3D3D3D" transform="translate(230,18)"/>
<path d="M0 0 C4.62 0 9.24 0 14 0 C14 0.66 14 1.32 14 2 C12.34467377 3.01866229 10.67739862 4.01810813 9 5 C7.5192152 7.9615696 7.64685963 10.83506295 7.4375 14.125 C7.35371094 15.40632813 7.26992188 16.68765625 7.18359375 18.0078125 C7.09271484 19.48894531 7.09271484 19.48894531 7 21 C6.67 21 6.34 21 6 21 C5.67 15.39 5.34 9.78 5 4 C2.525 3.01 2.525 3.01 0 2 C0 1.34 0 0.68 0 0 Z " fill="#353535" transform="translate(416,18)"/>
<path d="M0 0 C3.97915159 -0.02886984 7.95827653 -0.04675406 11.9375 -0.0625 C13.07380859 -0.07087891 14.21011719 -0.07925781 15.38085938 -0.08789062 C16.46044922 -0.09111328 17.54003906 -0.09433594 18.65234375 -0.09765625 C20.15269165 -0.10551147 20.15269165 -0.10551147 21.68334961 -0.11352539 C24 0 24 0 25 1 C25.04092937 3.33297433 25.04241723 5.66705225 25 8 C24.02933594 6.78763672 24.02933594 6.78763672 23.0390625 5.55078125 C19.06797986 2.21772602 16.39693865 2.22606438 11.375 2.1875 C10.611875 2.16236328 9.84875 2.13722656 9.0625 2.11132812 C6.04145614 2.01857678 3.02232472 2 0 2 C0 1.34 0 0.68 0 0 Z " fill="#676767" transform="translate(246,66)"/>
<path d="M0 0 C3.63 0 7.26 0 11 0 C11 0.66 11 1.32 11 2 C10.01 2.33 9.02 2.66 8 3 C6.97298794 4.68826195 6.97298794 4.68826195 6.24609375 6.78125 C5.80040039 7.92013672 5.80040039 7.92013672 5.34570312 9.08203125 C5.04599609 9.87996094 4.74628906 10.67789063 4.4375 11.5 C3.83818431 13.07527139 3.23299914 14.64832616 2.62109375 16.21875 C2.3573999 16.91935547 2.09370605 17.61996094 1.82202148 18.34179688 C1 20 1 20 -1 21 C-0.50647235 17.84142307 0.33471453 15.02403038 1.5 12.0625 C2.79586065 8.73118995 3.5548038 5.5615696 4 2 C2.68 2 1.36 2 0 2 C0 1.34 0 0.68 0 0 Z " fill="#343434" transform="translate(230,66)"/>
<path d="M0 0 C3.63 0 7.26 0 11 0 C10.113125 0.94875 9.22625 1.8975 8.3125 2.875 C1.79503021 10.56623212 -0.79003862 17.9600284 -1 28 C-1.33 28 -1.66 28 -2 28 C-2.59835405 20.26128768 -2.12657824 14.87763041 1.90625 8.15625 C3.30158409 5.80841332 3.30158409 5.80841332 3 2 C2.01 1.34 1.02 0.68 0 0 Z " fill="#3D3D3D" transform="translate(419,66)"/>
<path d="M0 0 C1.98 0.99 1.98 0.99 4 2 C4.66 1.67 5.32 1.34 6 1 C6.33 1.66 6.66 2.32 7 3 C7.66 3 8.32 3 9 3 C9.66 2.34 10.32 1.68 11 1 C11 1.66 11 2.32 11 3 C11.66 3.33 12.32 3.66 13 4 C12.01 5.485 12.01 5.485 11 7 C11 6.34 11 5.68 11 5 C10.34 5 9.68 5 9 5 C8.67 5.99 8.34 6.98 8 8 C8 7.34 8 6.68 8 6 C6.35 6 4.7 6 3 6 C3 7.32 3 8.64 3 10 C2.34 10 1.68 10 1 10 C0.67 10.66 0.34 11.32 0 12 C0 8.04 0 4.08 0 0 Z " fill="#F5F5F5" transform="translate(49,25)"/>
<path d="M0 0 C2.64 0 5.28 0 8 0 C7.67 0.99 7.34 1.98 7 3 C7.66 2.67 8.32 2.34 9 2 C9 1.34 9 0.68 9 0 C9.66 0 10.32 0 11 0 C11 1.32 11 2.64 11 4 C9.68 4.33 8.36 4.66 7 5 C7.66 6.32 8.32 7.64 9 9 C6.69 9 4.38 9 2 9 C0.875 3.25 0.875 3.25 2 1 C1.34 0.67 0.68 0.34 0 0 Z " fill="#AEAEAE" transform="translate(34,30)"/>
<path d="M0 0 C3.96 0 7.92 0 12 0 C12 0.66 12 1.32 12 2 C11.01 2.33 10.02 2.66 9 3 C8.67 9.27 8.34 15.54 8 22 C7.67 22 7.34 22 7 22 C7 16.39 7 10.78 7 5 C6.34 5 5.68 5 5 5 C4.67 4.34 4.34 3.68 4 3 C1.97536745 2.34786708 1.97536745 2.34786708 0 2 C0 1.34 0 0.68 0 0 Z " fill="#575757" transform="translate(132,66)"/>
<path d="M0 0 C0.33 0 0.66 0 1 0 C1 6.93 1 13.86 1 21 C3.475 21.99 3.475 21.99 6 23 C6.66 23.66 7.32 24.32 8 25 C4.04 25 0.08 25 -4 25 C-3.01 24.01 -2.02 23.02 -1 22 C-0.49669238 19.58936558 -0.49669238 19.58936558 -0.48828125 16.89453125 C-0.45283203 15.91162109 -0.41738281 14.92871094 -0.38085938 13.91601562 C-0.35830078 12.89185547 -0.33574219 11.86769531 -0.3125 10.8125 C-0.27833984 9.77673828 -0.24417969 8.74097656 -0.20898438 7.67382812 C-0.12647358 5.1159934 -0.05733428 2.55850277 0 0 Z " fill="#363636" transform="translate(399,24)"/>
<path d="M0 0 C0.66 0 1.32 0 2 0 C2 3.96 2 7.92 2 12 C1.34 12 0.68 12 0 12 C-0.3403125 11.0409375 -0.3403125 11.0409375 -0.6875 10.0625 C-1.85250896 7.72806339 -1.85250896 7.72806339 -4.625 7.25 C-5.40875 7.1675 -6.1925 7.085 -7 7 C-5.68 6.67 -4.36 6.34 -3 6 C-3 5.34 -3 4.68 -3 4 C-2.34 4 -1.68 4 -1 4 C-0.67 2.68 -0.34 1.36 0 0 Z " fill="#262626" transform="translate(302,27)"/>
<path d="M0 0 C0.66 0 1.32 0 2 0 C2.144375 0.94875 2.28875 1.8975 2.4375 2.875 C3.62043734 6.13270615 3.62043734 6.13270615 6.1015625 6.7734375 C7.72734148 7.08827089 9.36268064 7.35754428 11.00390625 7.578125 C11.66261719 7.71734375 12.32132812 7.8565625 13 8 C13.33 8.66 13.66 9.32 14 10 C8.375 10.25 8.375 10.25 5 8 C2.37468476 7.83286431 2.37468476 7.83286431 0 8 C0 5.36 0 2.72 0 0 Z " fill="#282828" transform="translate(317,88)"/>
<path d="M0 0 C1.6744239 0.6469365 3.34302621 1.30959426 5 2 C5.66 1.67 6.32 1.34 7 1 C7 3.64 7 6.28 7 9 C5 7 3 5 1 3 C-1.67058851 2.85884839 -4.32432238 2.95752893 -7 3 C-7.33 2.34 -7.66 1.68 -8 1 C-5.21084611 -0.39457694 -3.09726736 -0.1821922 0 0 Z " fill="#353535" transform="translate(329,66)"/>
<path d="M0 0 C0.33 0 0.66 0 1 0 C1 6.6 1 13.2 1 20 C0.67 18.68 0.34 17.36 0 16 C-0.66 16 -1.32 16 -2 16 C-2 14.68 -2 13.36 -2 12 C-1.34 12 -0.68 12 0 12 C0 10.02 0 8.04 0 6 C-0.66 6 -1.32 6 -2 6 C-2 4.68 -2 3.36 -2 2 C-1.34 2 -0.68 2 0 2 C0 1.34 0 0.68 0 0 Z " fill="#A9A9A9" transform="translate(29,24)"/>
<path d="M0 0 C3.96 0 7.92 0 12 0 C10.68 1.32 9.36 2.64 8 4 C7.01 5.485 7.01 5.485 6 7 C5.7525 6.38125 5.505 5.7625 5.25 5.125 C3.79371361 2.64931313 2.62187494 2.04874998 0 1 C0 0.67 0 0.34 0 0 Z " fill="#292929" transform="translate(172,66)"/>
<path d="M0 0 C0.33 0 0.66 0 1 0 C1.14584064 3.22868746 1.23424106 6.45652365 1.3125 9.6875 C1.35439453 10.59951172 1.39628906 11.51152344 1.43945312 12.45117188 C1.5608921 19.13031568 1.5608921 19.13031568 -0.13525391 21.76025391 C-1.51953125 23.14453125 -1.51953125 23.14453125 -4 25 C-3.55240545 22.91122542 -3.14236971 21.22690172 -2 19.40625 C-0.48944433 15.77147541 -0.53027216 12.15121294 -0.375 8.25 C-0.33632812 7.45722656 -0.29765625 6.66445312 -0.2578125 5.84765625 C-0.163892 3.89880584 -0.08087178 1.94943549 0 0 Z " fill="#080808" transform="translate(138,71)"/>
<path d="M0 0 C0.99 0 1.98 0 3 0 C3 1.32 3 2.64 3 4 C2.34 4 1.68 4 1 4 C1 5.98 1 7.96 1 10 C1.66 10 2.32 10 3 10 C3 11.32 3 12.64 3 14 C2.34 14 1.68 14 1 14 C0.67 15.32 0.34 16.64 0 18 C0 12.06 0 6.12 0 0 Z " fill="#838383" transform="translate(67,26)"/>
<path d="M0 0 C2.31 0 4.62 0 7 0 C6.67 0.66 6.34 1.32 6 2 C5.34 2 4.68 2 4 2 C3.34 3.98 2.68 5.96 2 8 C1.34 8 0.68 8 0 8 C0 5.36 0 2.72 0 0 Z " fill="#303030" transform="translate(365,67)"/>
<path d="M0 0 C1.98 0 3.96 0 6 0 C6 2.31 6 4.62 6 7 C3.00675737 5.9024777 2.15389099 5.32317108 0.75 2.375 C0.5025 1.59125 0.255 0.8075 0 0 Z " fill="#242424" transform="translate(305,19)"/>
<path d="M0 0 C3.96 0 7.92 0 12 0 C11.01 0.495 11.01 0.495 10 1 C9.67 1.66 9.34 2.32 9 3 C8.67 3.33 8.34 3.66 8 4 C5.66055264 3.71269945 3.3260857 3.38063221 1 3 C0.67 2.01 0.34 1.02 0 0 Z " fill="#B1B1B1" transform="translate(34,25)"/>
<path d="M0 0 C0.33 0 0.66 0 1 0 C1 2.64 1 5.28 1 8 C-2.3 8 -5.6 8 -9 8 C-9 7.67 -9 7.34 -9 7 C-7.6078125 6.6596875 -7.6078125 6.6596875 -6.1875 6.3125 C-2.47418434 4.78348767 -1.75211095 3.5042219 0 0 Z " fill="#050505" transform="translate(272,89)"/>
<path d="M0 0 C1.5 1.375 1.5 1.375 3 3 C3.66 3.66 4.32 4.32 5 5 C1.04 5 -2.92 5 -7 5 C-2.25 0 -2.25 0 0 0 Z " fill="#111111" transform="translate(157,92)"/>
<path d="M0 0 C3.63 0 7.26 0 11 0 C6.25 4.875 6.25 4.875 4 6 C3.896875 5.38125 3.79375 4.7625 3.6875 4.125 C3.12474627 1.63473516 3.12474627 1.63473516 0 0 Z " fill="#131313" transform="translate(419,66)"/>
<path d="M0 0 C2.31 0 4.62 0 7 0 C7 2.31 7 4.62 7 7 C5.83040013 6.02433888 4.66438823 5.044375 3.5 4.0625 C2.8503125 3.51722656 2.200625 2.97195312 1.53125 2.41015625 C1.0259375 1.94480469 0.520625 1.47945313 0 1 C0 0.67 0 0.34 0 0 Z " fill="#212121" transform="translate(264,67)"/>
<path d="M0 0 C0.99 0.33 1.98 0.66 3 1 C0.63707344 3.52588702 -0.66462511 4.88820837 -4 6 C-6.00875442 5.72428861 -8.01178687 5.39764263 -10 5 C-10 4.67 -10 4.34 -10 4 C-8.906875 3.896875 -7.81375 3.79375 -6.6875 3.6875 C-3.14440371 3.02692273 -2.06756277 2.7972908 0 0 Z " fill="#323232" transform="translate(274,43)"/>
<path d="M0 0 C0 1.32 0 2.64 0 4 C-2.31 4 -4.62 4 -7 4 C-7.33 3.01 -7.66 2.02 -8 1 C-5.07175348 0.02391783 -3.04386724 -0.08226668 0 0 Z " fill="#A4A4A4" transform="translate(63,30)"/>
<path d="M0 0 C1.65 0 3.3 0 5 0 C5 2.97 5 5.94 5 9 C2.67527795 6.14693203 1.2491742 3.45925163 0 0 Z " fill="#020202" transform="translate(271,20)"/>
<path d="M0 0 C1.98 0 3.96 0 6 0 C6 2.31 6 4.62 6 7 C4.5 5.625 4.5 5.625 3 4 C3 3.34 3 2.68 3 2 C2.01 1.67 1.02 1.34 0 1 C0 0.67 0 0.34 0 0 Z " fill="#090909" transform="translate(389,67)"/>
<path d="M0 0 C0.33 0 0.66 0 1 0 C1.33 2.97 1.66 5.94 2 9 C1.34 9 0.68 9 0 9 C-1.3950848 6.70221327 -2.07438619 5.5207033 -1.6875 2.8125 C-1 1 -1 1 0 0 Z " fill="#070707" transform="translate(302,30)"/>
<path d="M0 0 C0 2.64 0 5.28 0 8 C-1.37562854 6.71034824 -2.70766393 5.37310707 -4 4 C-4 3.34 -4 2.68 -4 2 C-1 0 -1 0 0 0 Z " fill="#070707" transform="translate(336,67)"/>
<path d="M0 0 C1.65 0 3.3 0 5 0 C5.66 1.32 6.32 2.64 7 4 C6.34 4 5.68 4 5 4 C5 3.34 5 2.68 5 2 C4.34 2 3.68 2 3 2 C3 2.66 3 3.32 3 4 C2.34 4 1.68 4 1 4 C0.67 2.68 0.34 1.36 0 0 Z " fill="#B3B3B3" transform="translate(50,35)"/>
<path d="M0 0 C0.928125 0.2784375 0.928125 0.2784375 1.875 0.5625 C4.04160178 1.23686176 4.04160178 1.23686176 6 0 C6 1.32 6 2.64 6 4 C4.35 4 2.7 4 1 4 C0.67 2.68 0.34 1.36 0 0 Z " fill="#ADADAD" transform="translate(57,35)"/>
</svg>
