<svg width="61" height="26" viewBox="0 0 61 26" fill="none" xmlns="http://www.w3.org/2000/svg">
<g clip-path="url(#clip0_912_2488)">
<path d="M20.0198 5.46018L13.8915 15.7858V22.7317C14.5969 24.4031 16.3799 24.6257 18.0887 24.7002V25.6658H6.09138V24.7002C7.8 24.6257 9.88 24.366 10.4371 23.2519V16.0829L4.19707 5.53431C3.12012 3.75144 2.08012 3.15743 0 3.00868V2.04305H10.4372V3.00868C8.4685 3.12 7.83719 3.49174 7.28012 3.93761L13.0744 13.9657L18.7572 3.97443C18.1629 3.5288 17.383 3.12 15.4144 3.0088V2.04318H24.3286V3.0088C22.3228 3.08318 21.0599 3.75144 20.0198 5.46018ZM32.2026 26.0001C30.1971 26.0001 29.2312 24.6257 29.1569 23.6603C27.8939 24.9973 26.2599 26.0001 24.6999 26.0001C22.6942 26.0001 20.9854 24.7743 20.9854 22.6576C20.9854 21.6172 21.2455 20.5401 21.7656 19.686L29.1569 17.0116V14.263C29.1569 12.5917 28.3769 10.9945 26.7054 10.9945C25.7026 10.9945 24.7369 12.2199 24.6628 14.1145L21.3196 14.6713V14.3003C22.4339 10.9571 26.1112 9.65737 27.8938 9.65737C31.2739 9.65737 32.4996 11.44 32.4625 14.1886L32.3512 21.9885C32.314 23.5114 33.131 23.8828 33.874 23.8828C34.4681 23.8828 35.0624 23.5114 35.7683 22.8059V23.8828C34.9513 24.8488 33.5029 26.0001 32.2026 26.0001ZM24.7742 19.9459C24.6256 20.5401 24.5142 21.0601 24.5142 21.8773C24.5142 22.9914 25.1457 24.1056 26.3713 24.1056C27.4855 24.1056 28.1169 23.7346 29.1199 22.9544L29.1569 17.9398C28.1913 18.3856 25.8143 19.4259 24.7742 19.9459ZM36.1028 25.6658V24.8114C37.7741 24.7001 38.2566 24.3287 38.5542 23.6969V4.45701C38.5542 3.19413 38.3683 2.67437 35.8055 2.45138V1.70862L42.6028 0L42.8254 0.631798L41.7485 1.9688V23.697C42.1199 24.4401 42.8254 24.7002 44.3484 24.8115V25.6659H36.1028V25.6658ZM53.2624 25.9629C49.3626 25.9629 46.3539 22.8801 46.3539 18.5715C46.3539 13.2971 49.5856 9.69419 54.1541 9.69419C57.8311 9.69419 59.874 11.7747 59.874 15.0801V15.7486L49.8455 15.6745C49.7714 16.0829 49.7338 16.7518 49.7338 17.5687C49.7338 21.3572 52.1111 23.8457 55.2685 23.8457C57.1625 23.8457 58.1284 23.1771 59.6138 21.9144L60.171 22.7684C58.0541 24.7002 56.3083 25.9629 53.2624 25.9629ZM53.5971 10.846C51.7396 10.846 50.44 12.3315 49.9941 14.6713L56.5316 14.5972C56.5315 12.6286 55.3054 10.846 53.5971 10.846Z" fill="#191919"/>
</g>
<defs>
<clipPath id="clip0_912_2488">
<rect width="60.1713" height="26" fill="white"/>
</clipPath>
</defs>
</svg>
